<svg width="125" height="97" viewBox="0 0 125 97" fill="none" xmlns="http://www.w3.org/2000/svg">
<g clip-path="url(#clip0_88_239)">
<path d="M3.16456 8.7189C4.9123 8.7189 6.32912 6.98118 6.32912 4.8376C6.32912 2.69402 4.9123 0.956299 3.16456 0.956299C1.41682 0.956299 0 2.69402 0 4.8376C0 6.98118 1.41682 8.7189 3.16456 8.7189Z" fill="#1C94D2"/>
<path d="M26.8989 8.7189C28.6467 8.7189 30.0635 6.98118 30.0635 4.8376C30.0635 2.69402 28.6467 0.956299 26.8989 0.956299C25.1512 0.956299 23.7344 2.69402 23.7344 4.8376C23.7344 6.98118 25.1512 8.7189 26.8989 8.7189Z" fill="#1C94D2"/>
<path d="M50.6328 8.7189C52.3806 8.7189 53.7974 6.98118 53.7974 4.8376C53.7974 2.69402 52.3806 0.956299 50.6328 0.956299C48.8851 0.956299 47.4683 2.69402 47.4683 4.8376C47.4683 6.98118 48.8851 8.7189 50.6328 8.7189Z" fill="#1C94D2"/>
<path d="M3.16456 37.8286C4.9123 37.8286 6.32912 36.0909 6.32912 33.9473C6.32912 31.8038 4.9123 30.066 3.16456 30.066C1.41682 30.066 0 31.8038 0 33.9473C0 36.0909 1.41682 37.8286 3.16456 37.8286Z" fill="#1C94D2"/>
<path d="M26.8989 37.8286C28.6467 37.8286 30.0635 36.0909 30.0635 33.9473C30.0635 31.8038 28.6467 30.066 26.8989 30.066C25.1512 30.066 23.7344 31.8038 23.7344 33.9473C23.7344 36.0909 25.1512 37.8286 26.8989 37.8286Z" fill="#1C94D2"/>
<path d="M50.6328 37.8286C52.3806 37.8286 53.7974 36.0909 53.7974 33.9473C53.7974 31.8038 52.3806 30.066 50.6328 30.066C48.8851 30.066 47.4683 31.8038 47.4683 33.9473C47.4683 36.0909 48.8851 37.8286 50.6328 37.8286Z" fill="#1C94D2"/>
<path d="M3.16456 66.9384C4.9123 66.9384 6.32912 65.2007 6.32912 63.0571C6.32912 60.9135 4.9123 59.1758 3.16456 59.1758C1.41682 59.1758 0 60.9135 0 63.0571C0 65.2007 1.41682 66.9384 3.16456 66.9384Z" fill="#1C94D2"/>
<path d="M26.8989 66.9384C28.6467 66.9384 30.0635 65.2007 30.0635 63.0571C30.0635 60.9135 28.6467 59.1758 26.8989 59.1758C25.1512 59.1758 23.7344 60.9135 23.7344 63.0571C23.7344 65.2007 25.1512 66.9384 26.8989 66.9384Z" fill="#1C94D2"/>
<path d="M50.6328 66.9384C52.3806 66.9384 53.7974 65.2007 53.7974 63.0571C53.7974 60.9135 52.3806 59.1758 50.6328 59.1758C48.8851 59.1758 47.4683 60.9135 47.4683 63.0571C47.4683 65.2007 48.8851 66.9384 50.6328 66.9384Z" fill="#1C94D2"/>
<path d="M3.16456 96.0482C4.9123 96.0482 6.32912 94.3105 6.32912 92.1669C6.32912 90.0234 4.9123 88.2856 3.16456 88.2856C1.41682 88.2856 0 90.0234 0 92.1669C0 94.3105 1.41682 96.0482 3.16456 96.0482Z" fill="#1C94D2"/>
<path d="M26.8989 96.0482C28.6467 96.0482 30.0635 94.3105 30.0635 92.1669C30.0635 90.0234 28.6467 88.2856 26.8989 88.2856C25.1512 88.2856 23.7344 90.0234 23.7344 92.1669C23.7344 94.3105 25.1512 96.0482 26.8989 96.0482Z" fill="#1C94D2"/>
<path d="M50.6328 96.0482C52.3806 96.0482 53.7974 94.3105 53.7974 92.1669C53.7974 90.0234 52.3806 88.2856 50.6328 88.2856C48.8851 88.2856 47.4683 90.0234 47.4683 92.1669C47.4683 94.3105 48.8851 96.0482 50.6328 96.0482Z" fill="#1C94D2"/>
<path d="M74.3672 8.7189C76.1149 8.7189 77.5318 6.98118 77.5318 4.8376C77.5318 2.69402 76.1149 0.956299 74.3672 0.956299C72.6195 0.956299 71.2026 2.69402 71.2026 4.8376C71.2026 6.98118 72.6195 8.7189 74.3672 8.7189Z" fill="#1C94D2"/>
<path d="M98.1011 8.7189C99.8488 8.7189 101.266 6.98118 101.266 4.8376C101.266 2.69402 99.8488 0.956299 98.1011 0.956299C96.3533 0.956299 94.9365 2.69402 94.9365 4.8376C94.9365 6.98118 96.3533 8.7189 98.1011 8.7189Z" fill="#1C94D2"/>
<path d="M121.835 8.7189C123.583 8.7189 125 6.98118 125 4.8376C125 2.69402 123.583 0.956299 121.835 0.956299C120.088 0.956299 118.671 2.69402 118.671 4.8376C118.671 6.98118 120.088 8.7189 121.835 8.7189Z" fill="#1C94D2"/>
<path d="M74.3672 37.8286C76.1149 37.8286 77.5318 36.0909 77.5318 33.9473C77.5318 31.8038 76.1149 30.066 74.3672 30.066C72.6195 30.066 71.2026 31.8038 71.2026 33.9473C71.2026 36.0909 72.6195 37.8286 74.3672 37.8286Z" fill="#1C94D2"/>
<path d="M98.1011 37.8286C99.8488 37.8286 101.266 36.0909 101.266 33.9473C101.266 31.8038 99.8488 30.066 98.1011 30.066C96.3533 30.066 94.9365 31.8038 94.9365 33.9473C94.9365 36.0909 96.3533 37.8286 98.1011 37.8286Z" fill="#1C94D2"/>
<path d="M121.835 37.8286C123.583 37.8286 125 36.0909 125 33.9473C125 31.8038 123.583 30.066 121.835 30.066C120.088 30.066 118.671 31.8038 118.671 33.9473C118.671 36.0909 120.088 37.8286 121.835 37.8286Z" fill="#1C94D2"/>
<path d="M74.3672 66.9384C76.1149 66.9384 77.5318 65.2007 77.5318 63.0571C77.5318 60.9135 76.1149 59.1758 74.3672 59.1758C72.6195 59.1758 71.2026 60.9135 71.2026 63.0571C71.2026 65.2007 72.6195 66.9384 74.3672 66.9384Z" fill="#1C94D2"/>
<path d="M98.1011 66.9384C99.8488 66.9384 101.266 65.2007 101.266 63.0571C101.266 60.9135 99.8488 59.1758 98.1011 59.1758C96.3533 59.1758 94.9365 60.9135 94.9365 63.0571C94.9365 65.2007 96.3533 66.9384 98.1011 66.9384Z" fill="#1C94D2"/>
<path d="M121.835 66.9384C123.583 66.9384 125 65.2007 125 63.0571C125 60.9135 123.583 59.1758 121.835 59.1758C120.088 59.1758 118.671 60.9135 118.671 63.0571C118.671 65.2007 120.088 66.9384 121.835 66.9384Z" fill="#1C94D2"/>
<path d="M74.3672 96.0482C76.1149 96.0482 77.5318 94.3105 77.5318 92.1669C77.5318 90.0234 76.1149 88.2856 74.3672 88.2856C72.6195 88.2856 71.2026 90.0234 71.2026 92.1669C71.2026 94.3105 72.6195 96.0482 74.3672 96.0482Z" fill="#1C94D2"/>
<path d="M98.1011 96.0482C99.8488 96.0482 101.266 94.3105 101.266 92.1669C101.266 90.0234 99.8488 88.2856 98.1011 88.2856C96.3533 88.2856 94.9365 90.0234 94.9365 92.1669C94.9365 94.3105 96.3533 96.0482 98.1011 96.0482Z" fill="#1C94D2"/>
<path d="M121.835 96.0482C123.583 96.0482 125 94.3105 125 92.1669C125 90.0234 123.583 88.2856 121.835 88.2856C120.088 88.2856 118.671 90.0234 118.671 92.1669C118.671 94.3105 120.088 96.0482 121.835 96.0482Z" fill="#1C94D2"/>
</g>
<defs>
<clipPath id="clip0_88_239">
<rect width="95.0919" height="125" fill="white" transform="matrix(0 -1 1 0 0 96.0482)"/>
</clipPath>
</defs>
</svg>
