<svg width="190" height="200" viewBox="0 0 190 200" fill="none" xmlns="http://www.w3.org/2000/svg">
<path d="M164.554 176.146C149.947 140.576 126.874 108.815 97.8535 83.7077C92.5997 77.2688 87.1116 71.0244 81.4002 64.9869C85.6602 56.4623 90.0669 48.0176 94.6402 39.6595C95.1002 38.8203 94.9135 38.0145 94.4269 37.4551H94.4935C97.0669 37.5283 97.0669 33.5324 94.4935 33.4591C89.8069 33.3259 85.1269 33.3792 80.4402 33.639C80.3669 33.639 80.3002 33.6589 80.2269 33.6723C61.8202 33.3792 43.4802 35.7568 25.7535 40.7317C24.2402 41.1579 23.8869 42.9627 24.8735 44.0683C26.7335 46.1728 28.5669 48.2973 30.3735 50.4484C30.3402 51.3941 30.8402 52.2799 31.9202 52.3065C43.4615 66.2499 53.8448 81.1107 62.9669 96.741C63.6602 97.9265 65.7935 98.1529 66.4202 96.741C67.6002 94.0771 68.8002 91.4331 70.0135 88.7825C70.3802 88.4628 70.6535 88.01 70.7269 87.4239L70.7669 87.1509C72.9735 82.3558 75.2269 77.5807 77.5335 72.8255C80.9269 75.243 84.2535 77.7538 87.5135 80.3445C90.7335 84.1073 93.9602 87.8701 97.1802 91.6329L106.42 103.514C107.027 104.3 107.947 104.293 108.68 103.88C112.6 108.929 116.387 114.083 120.04 119.338C120.38 119.831 120.84 120.09 121.314 120.184C124.528 124.394 127.869 128.505 131.334 132.511C131.367 132.571 131.4 132.631 131.44 132.684C131.974 133.65 132.5 134.622 133.034 135.588C133.034 135.894 133.107 136.214 133.287 136.54C139.872 148.902 145.941 161.531 151.48 174.395C152.367 176.459 155.907 174.981 155.134 172.856C154.92 172.264 154.694 171.671 154.474 171.078C155.487 170.759 156.32 169.813 155.847 168.687C155.114 166.936 154.38 165.184 153.647 163.426C153.727 163.106 153.72 162.747 153.574 162.341C153.167 161.228 152.734 160.13 152.3 159.024C155.36 164.965 158.167 171.032 160.707 177.212C161.674 179.556 165.54 178.531 164.567 176.146H164.554ZM69.3402 52.5729C69.1335 52.3998 68.8935 52.2865 68.6469 52.2333C68.5735 52.1733 68.5069 52.1134 68.4335 52.0668C69.0935 51.9269 69.7535 51.7871 70.4135 51.6405C70.5402 51.6405 70.6669 51.6272 70.7935 51.6206L70.4935 52.7993C70.1135 52.7194 69.7269 52.6462 69.3469 52.5796L69.3402 52.5729ZM66.7469 58.9664C66.6535 58.7866 66.5602 58.6001 66.4602 58.4203C66.2541 58.0283 65.9096 57.7269 65.4935 57.5745C65.8469 57.6078 66.1935 57.6344 66.5469 57.661L66.7402 58.9597L66.7469 58.9664ZM64.5335 57.4812C63.7735 57.5944 63.0669 58.1073 62.8202 58.8532C62.1269 58.2138 61.4202 57.5811 60.6869 56.9751C61.9669 57.1749 63.2469 57.3414 64.5335 57.4746V57.4812ZM46.4535 55.8029C48.1535 57.3414 49.8202 58.9064 51.4269 60.5248C51.3335 60.4848 51.2335 60.4582 51.1335 60.4315C49.4135 58.9131 47.7002 57.3813 46.0002 55.8362C46.1535 55.8229 46.3002 55.8163 46.4535 55.8029ZM43.3802 53.0791C43.3402 53.1656 43.3069 53.2589 43.2735 53.3521C43.1802 53.2655 43.0802 53.179 42.9869 53.0857C42.6602 52.6795 42.3269 52.2799 42.0002 51.8736L43.3869 53.0791H43.3802ZM40.2402 45.7466C39.3335 45.9663 38.4269 46.2061 37.5269 46.4592C37.2202 46.0929 36.9135 45.7266 36.6069 45.367C37.8135 45.5068 39.0269 45.6334 40.2402 45.7466ZM80.7469 44.0816C80.6469 44.0683 80.5469 44.0616 80.4469 44.0683C80.2935 44.0816 80.1402 44.1016 79.9802 44.1149C80.3335 43.9284 80.6802 43.742 81.0269 43.5621C80.9269 43.7353 80.8402 43.9084 80.7402 44.0816H80.7469ZM81.5202 37.6748C81.8135 37.6748 82.0669 37.6282 82.2935 37.5416C85.3135 37.4084 88.3335 37.3552 91.3602 37.3885C91.3002 37.4684 91.2402 37.5416 91.1935 37.6349C88.5069 42.5432 85.8802 47.4848 83.3069 52.453C83.2802 52.3731 83.2535 52.2999 83.2202 52.2266C83.4802 51.2343 83.7269 50.242 83.9602 49.243C84.1335 48.4771 83.9202 47.8311 83.5002 47.3982C84.3469 45.8198 85.2202 44.2614 86.1402 42.723C87.4469 40.5319 84.0869 38.5473 82.7335 40.6385C82.4802 39.8792 81.8402 39.2799 80.9069 39.3731L80.4402 39.413C80.4269 38.7471 80.1069 38.0611 79.5069 37.6482C80.1735 37.6548 80.8469 37.6615 81.5135 37.6748H81.5202ZM31.1402 43.4289C31.3269 44.1615 31.8935 44.8009 32.7802 44.9274C32.3735 45.5068 32.2669 46.2594 32.7602 46.9453L33.3602 47.7845C33.3535 47.7845 33.3469 47.7845 33.3402 47.7911C32.2002 46.4325 31.0602 45.0739 29.9002 43.7353C30.3135 43.6287 30.7269 43.5288 31.1402 43.4223V43.4289ZM64.4602 91.3998C63.6069 89.9746 62.7269 88.5627 61.8469 87.1509C62.5469 86.6048 62.9135 85.6657 62.3135 84.6667C62.1802 84.4403 62.0402 84.2205 61.9069 83.9941C62.0602 83.9408 62.2002 83.8742 62.3402 83.7943C63.5002 85.2794 64.6869 86.7579 65.9069 88.2031C65.4202 89.2687 64.9335 90.3343 64.4535 91.3998H64.4602Z" fill="#1C94D2"/>
<path d="M84.9132 171.418C80.5666 164.112 75.1866 157.519 69.3466 151.352C66.4066 148.248 63.3599 145.245 60.2866 142.274C59.2932 141.315 58.3066 140.316 57.2999 139.337C59.4932 138.045 61.6532 136.687 63.7666 135.248C64.7066 134.609 64.9132 133.25 64.4066 132.364C64.8399 131.352 64.5532 130.02 63.1732 129.667C54.9732 127.569 49.3599 120.23 40.6132 119.551C39.2266 119.444 38.4466 120.91 38.6866 122.082C38.8666 122.987 39.0399 123.893 39.2066 124.799C38.2132 125.238 37.7532 126.644 38.2332 127.703C38.8466 129.055 39.5399 130.347 40.3132 131.585C40.9066 135.714 41.3532 139.857 41.6466 144.026C41.7599 145.651 43.2332 146.363 44.6532 145.751C47.7332 144.425 50.7399 142.967 53.6799 141.382C55.1266 142.727 56.4932 144.172 57.8799 145.518C60.8132 148.355 63.7132 151.225 66.5199 154.189C72.1332 160.116 77.2799 166.423 81.4599 173.449C82.7732 175.66 86.2332 173.649 84.9132 171.431V171.418ZM56.6799 132.964C56.9599 131.752 56.0332 130.48 54.7999 130.466C54.7466 130.307 54.6799 130.147 54.5799 130C55.9132 130.833 57.2666 131.619 58.6732 132.265C57.9932 132.464 57.3332 132.697 56.6799 132.964ZM48.9999 126.73C48.6866 126.557 48.3732 126.391 48.0532 126.217C47.6732 126.011 47.2799 125.944 46.9132 125.978C45.7332 125.665 44.5332 125.538 43.3399 125.372C43.2599 124.899 43.1799 124.426 43.0932 123.96C45.8466 124.659 48.3532 126.064 50.8266 127.616C50.2266 127.296 49.6199 127.003 48.9932 126.73H48.9999ZM44.0132 129.394C44.5066 129.467 44.9932 129.561 45.4866 129.694C45.5999 129.727 45.7066 129.76 45.8132 129.8C45.9799 130.087 46.1399 130.373 46.3066 130.653C45.8199 130.733 45.3666 130.986 45.0332 131.432C44.7132 130.999 44.4066 130.553 44.1132 130.1C44.0799 129.867 44.0466 129.627 44.0066 129.394H44.0132ZM49.2132 138.711C49.2599 138.851 49.3199 138.978 49.3999 139.104C48.8732 139.377 48.3399 139.644 47.8066 139.903C48.2666 139.497 48.7332 139.098 49.2066 138.711H49.2132Z" fill="#1C94D2"/>
<path d="M180.833 106.271C174.967 91.3597 162.913 80.5042 149.467 72.3192C150.16 70.7808 150.847 69.249 151.607 67.7705C153.339 65.3459 155.074 62.9239 156.813 60.5046C158.08 58.7398 155.64 56.855 154.02 57.8274C153.833 57.0082 153.22 56.2623 152.173 56.1558C144.28 55.3499 136.44 55.6097 128.607 56.8217C127.127 57.0482 126.68 59.226 127.727 60.1583C128.107 60.498 128.487 60.8443 128.853 61.1973C127.407 60.9842 125.82 62.4693 126.76 64.1343C130.713 71.1204 134.667 78.1066 138.613 85.0995C139.42 86.5247 141.2 86.2383 142.067 85.0995C144.26 82.2024 146.107 79.1589 147.74 75.9555C160.107 83.5277 171.56 93.5708 176.98 107.343C177.913 109.708 181.78 108.682 180.84 106.284L180.833 106.271ZM148.22 65.6594C147.52 66.6317 146.82 67.6107 146.127 68.583C145.981 68.4998 145.824 68.4392 145.66 68.4032C146.374 67.7972 146.74 66.7183 146.227 65.9058C146.56 65.5928 146.747 65.1732 146.793 64.7336C146.94 64.7403 147.08 64.7403 147.227 64.747C148.86 64.8469 149.994 62.4227 148.64 61.3371C147.46 60.3981 146.147 60.0851 144.974 60.3448C144.98 60.125 144.993 59.9119 145 59.6921C147.273 59.7454 149.54 59.8786 151.813 60.1051C150.407 61.8166 149.253 63.6881 148.227 65.6527L148.22 65.6594ZM134.753 68.0036C134.753 68.4099 134.747 68.8161 134.734 69.2224C134.42 68.7362 134.113 68.2434 133.8 67.7572C134.12 67.8505 134.433 67.9304 134.753 68.0036ZM137.193 61.5835C136.493 61.6501 135.793 61.75 135.093 61.8899C134.573 61.3038 134.033 60.7377 133.487 60.1783C135.16 59.9985 136.833 59.8586 138.513 59.7787C138.027 60.3448 137.58 60.9442 137.193 61.5902V61.5835ZM139.793 79.0523C140.22 79.3121 140.733 79.412 141.24 79.2521C141.007 79.6184 140.773 79.9847 140.527 80.351C140.28 79.9181 140.033 79.4852 139.793 79.0523Z" fill="#1C94D2"/>
</svg>
