<svg width="506" height="565" viewBox="0 0 506 565" fill="none" xmlns="http://www.w3.org/2000/svg">
<g clip-path="url(#clip0_98_894)">
<path d="M139.978 341.341C166.866 408.867 239.257 467.933 274.69 451.346C308.36 435.577 285.412 362.369 326.552 341.989C356.771 327.01 386.155 358.087 421.75 339.112C441.824 328.41 454.422 306.829 457.812 289.678C473.818 208.637 310.81 90.7947 253.79 123.08C218.684 142.963 230.631 215.884 183.193 233.12C163.723 240.201 151.781 231.51 139.301 242.293C116.774 261.758 128.8 313.225 139.988 341.332L139.978 341.341Z" fill="#1C94D2" fill-opacity="0.35"/>
</g>
<defs>
<clipPath id="clip0_98_894">
<rect width="399.778" height="399.814" fill="white" transform="matrix(-0.675645 -0.737227 0.737915 -0.674894 270.108 564.558)"/>
</clipPath>
</defs>
</svg>
