<svg width="149" height="159" viewBox="0 0 149 159" fill="none" xmlns="http://www.w3.org/2000/svg">
<g clip-path="url(#clip0_205_857)">
<path d="M0.0395692 79.5341C0.0395692 53.5205 0.0452478 27.507 0.0168549 1.49346C0.0111763 0.386143 0.124748 0 1.41946 0C49.852 0.0454286 98.2845 0.0454286 146.717 0.0170357C147.824 0.0170357 148.211 0.124929 148.205 1.41964C148.159 53.4467 148.165 105.479 148.188 157.507C148.188 158.614 148.08 159 146.785 159C98.3527 158.955 49.9201 158.955 1.4876 158.983C0.380283 158.983 -0.00585938 158.875 -0.00585938 157.58C0.0452478 131.567 0.0338906 105.553 0.0338906 79.5341H0.0395692Z" fill="#FEFEFE"/>
<path d="M87.8532 34.3327C89.4319 32.9641 90.1928 32.9755 91.709 34.4235C93.0661 35.7126 93.9066 37.2571 93.8214 39.1708C93.7816 40.0396 94.0826 40.2497 94.9287 40.3179C99.2955 40.6756 102.521 44.2361 102.538 48.6483C102.555 52.7994 102.555 56.9561 102.532 61.1071C102.532 61.8908 102.686 62.5211 103.185 63.1798C106.206 67.1605 104.923 72.7709 100.477 75.1162C99.8293 75.4569 99.5795 75.8885 99.4034 76.5926C97.626 83.6624 93.8952 89.3978 87.7624 93.475C87.2059 93.8441 86.1667 94.2018 86.7289 94.9741C87.1831 95.6045 88.2507 95.383 89.023 95.0366C89.3069 94.9117 89.5057 94.5993 89.7442 94.3665C93.6113 90.6243 97.4841 86.8878 101.34 83.14C102.141 82.3563 102.975 81.8226 104.083 82.4983C104.787 82.9299 105.003 82.2428 105.315 81.9475C110.516 76.939 115.701 71.9135 120.885 66.8879C122.782 65.0481 124.65 63.1741 126.598 61.3854C130.414 57.876 136.07 57.9896 139.562 61.5955C143.128 65.2752 143.089 70.9594 139.335 74.6619C134.162 79.7669 128.904 84.7811 123.679 89.8407C121.851 91.6124 120.034 93.4012 118.2 95.1672C117.711 95.6328 117.308 95.9508 117.74 96.8026C118.239 97.7793 117.507 98.5573 116.797 99.2387C112.311 103.566 107.876 107.933 103.339 112.209C102.351 113.14 102.01 114.071 102.016 115.394C102.061 126.343 102.044 137.297 102.044 148.245C102.044 150.658 101.652 151.056 99.2671 151.056C82.7936 151.056 66.3258 151.056 49.8522 151.056C47.382 151.056 47.0243 150.687 47.0243 148.154C47.0243 137.064 47.0129 125.968 47.047 114.878C47.047 113.906 46.7915 113.225 46.076 112.544C41.499 108.182 36.9732 103.759 32.419 99.375C31.5331 98.5176 30.7438 97.6885 31.5161 96.3313C31.8511 95.7407 31.2265 95.5079 30.9199 95.2126C24.0431 88.5403 17.1664 81.8737 10.2726 75.2241C8.64283 73.6511 7.44465 71.8737 7.05851 69.5739C6.41115 65.7465 8.16583 61.9532 11.5787 60.0168C14.9744 58.0975 19.2674 58.4212 22.0897 61.056C26.7064 65.3717 31.2151 69.8124 35.7637 74.2076C38.478 76.8311 41.181 79.4659 43.9124 82.0781C44.168 82.3279 44.3554 82.8845 44.9232 82.5267C46.1611 81.7487 47.0413 82.4245 47.8988 83.2592C51.7545 87.0128 55.6216 90.7493 59.4717 94.5085C59.9601 94.9855 60.4314 95.4284 61.1696 95.2467C61.6069 95.1388 62.2769 95.6215 62.4586 94.8322C62.6063 94.1962 62.1009 93.9633 61.6466 93.6737C58.1145 91.4534 55.2809 88.5346 53.1117 84.9742C51.4876 82.3109 50.2951 79.4716 49.6478 76.4166C49.5172 75.8146 49.2503 75.4626 48.6938 75.1673C44.2872 72.8277 42.9244 67.5864 45.6785 63.4865C46.1271 62.8164 46.3088 62.1804 46.2974 61.4024C46.235 57.4388 46.2918 53.4865 47.666 49.6818C49.5285 44.5314 52.947 40.6359 57.3706 37.5354C58.5177 36.729 59.4888 37.1436 60.3803 38.0181C61.3684 38.8869 60.8516 39.7273 60.2838 40.5053C59.75 41.2321 58.9323 41.6751 58.2338 42.2316C53.0947 46.3201 50.5734 51.6637 50.5848 58.2224C50.5848 58.8755 50.4996 59.6137 51.482 59.6818C52.2997 59.7329 52.6858 59.29 52.8391 58.5461C54.0714 52.5722 58.2906 49.5058 64.378 49.5967C71.4138 49.6989 78.2848 48.654 85.1843 47.6376C89.1366 47.0583 92.9866 49.6989 94.1735 53.7931C94.6221 55.332 94.9628 56.905 95.3489 58.4609C95.5023 59.0856 95.701 59.6534 96.4846 59.6932C98.1598 59.6932 98.1996 59.6818 98.2053 58.1088C98.2166 54.9572 98.262 51.8056 98.1882 48.6597C98.1371 46.3485 96.8026 44.9005 94.6505 44.662C93.1172 44.5768 91.4591 44.98 90.2382 43.6001C89.6193 42.8392 89.6874 41.9192 89.7328 41.0447C89.8123 39.5115 89.4432 38.2055 88.2791 37.1095C87.4728 36.3542 87.1207 35.4002 87.8646 34.344L87.8532 34.3327Z" fill="black"/>
<path d="M63.2197 36.6211C64.2646 34.4065 64.7757 32.0045 65.6388 29.7217C65.883 29.0743 65.4628 28.8983 65.088 28.6257C62.3793 26.6666 59.6706 24.7075 56.9676 22.7427C56.2749 22.243 55.5764 21.7319 55.5821 20.7439C55.5934 19.5968 56.4395 18.8756 57.933 18.8699C61.1414 18.8529 64.3498 18.8131 67.5582 18.9494C68.8642 19.0062 69.3469 18.5122 69.6933 17.3594C70.5905 14.3498 71.6127 11.3799 72.5496 8.37593C72.8676 7.35379 73.3162 6.53607 74.5315 6.5304C75.741 6.5304 76.1953 7.34243 76.519 8.36457C77.5127 11.4935 78.5973 14.5883 79.54 17.7342C79.8296 18.7053 80.2725 18.9494 81.2208 18.9267C84.4292 18.8529 87.6376 18.8756 90.846 18.8529C91.942 18.8472 92.9641 18.9892 93.3786 20.193C93.8102 21.4423 92.9641 22.1124 92.101 22.7427C89.432 24.6791 86.7801 26.6382 84.0771 28.5235C83.4071 28.9891 83.2367 29.3923 83.5604 30.1249C84.0317 31.1924 84.1623 32.3849 84.7756 33.4014C85.7069 34.2418 85.7239 35.4684 86.1157 36.536C86.3997 37.5297 86.7517 38.5064 87.0754 39.4888C87.4559 40.6416 87.5013 41.7035 86.411 42.5496C85.3207 43.3957 84.3156 43.0947 83.3049 42.3906C80.8687 40.6984 78.5121 38.8983 76.1158 37.1493C74.5939 36.0419 74.4633 36.0419 72.9187 37.172C70.5621 38.8983 68.2396 40.6643 65.8432 42.3281C64.8552 43.0152 63.8614 43.4298 62.7371 42.6007C61.7206 41.8568 61.4991 41.0277 62.0159 39.4491C62.3339 38.4724 62.527 37.4332 63.2254 36.6155L63.2197 36.6211Z" fill="black"/>
<path d="M63.2193 36.6211C62.8786 37.7398 62.5379 38.8642 62.1915 39.9828C61.8962 40.9312 62.0325 41.7546 62.873 42.3735C63.7191 42.9925 64.5254 42.8619 65.3375 42.2656C68.0745 40.2611 70.8343 38.2963 73.5487 36.2691C74.2812 35.7182 74.8093 35.741 75.5305 36.2861C78.1653 38.2622 80.857 40.1646 83.5089 42.1237C84.3834 42.771 85.2408 43.0947 86.2062 42.3622C87.1602 41.641 87.1261 40.7211 86.7684 39.6932C86.4163 38.6768 86.1551 37.6262 85.8541 36.5927C85.644 35.7012 86.1949 35.9283 86.5924 36.1385C87.9609 36.8653 88.7048 38.0578 89.0001 39.5513C89.108 40.1021 89.1307 40.6699 89.0625 41.2208C88.9262 42.3111 89.3635 43.0038 90.3629 43.39C91.6008 44.5995 93.2022 44.0317 94.6389 44.2475C96.9046 45.3548 97.6542 47.4161 97.8075 49.6875C98.012 52.6801 97.8586 55.6898 97.8757 58.6937C97.8813 59.8011 97.2056 59.9828 96.3538 60.0452C95.5929 60.2781 95.2806 59.9885 95.1159 59.2048C94.7354 57.4104 94.2584 55.6387 93.7871 53.867C92.7082 49.8465 88.9035 47.4672 84.832 48.0862C78.2278 49.0856 71.635 50.2327 64.9116 49.9544C63.4578 49.892 61.9871 50.0282 60.5788 50.4428C56.5016 51.658 54.0428 54.361 53.2421 58.5518C52.9809 59.9146 51.7884 60.5733 50.5448 60.0623C50.0451 59.8578 50.1984 59.449 50.1813 59.1026C49.9145 51.675 52.7367 45.7296 58.756 41.3343C59.8803 40.511 61.0501 39.7103 60.3573 38.0124C61.3113 37.5467 62.2653 37.0811 63.2193 36.6211Z" fill="#4A4D71"/>
<path d="M20.2949 28.921C21.8054 28.921 23.3216 28.8301 24.8264 28.9494C25.9224 29.0346 26.388 28.6484 26.6947 27.6263C27.5919 24.6167 28.5913 21.6354 29.5339 18.6371C29.8519 17.6263 30.3687 16.7689 31.5442 16.7916C32.6969 16.8143 33.1909 17.632 33.5146 18.6769C34.48 21.766 35.5532 24.8211 36.4959 27.9159C36.7344 28.7052 37.0694 28.938 37.8587 28.9324C41.1125 28.8869 44.372 28.9324 47.6315 28.8983C48.7218 28.8869 49.5963 29.1254 49.9825 30.2555C50.3629 31.3685 49.7213 32.0215 48.9092 32.6064C46.2744 34.503 43.6509 36.4224 41.0047 38.3077C40.3403 38.779 40.1302 39.1935 40.4311 40.051C41.5044 43.1061 42.4413 46.2066 43.4692 49.2787C43.8155 50.3122 43.8723 51.2548 42.8729 51.9192C41.9587 52.5268 41.1125 52.2145 40.2835 51.6012C37.7849 49.7557 35.2125 48.001 32.7707 46.0816C31.777 45.298 31.1353 45.457 30.2381 46.1328C27.8417 47.9556 25.3715 49.6875 22.9582 51.4876C22.0609 52.152 21.141 52.595 20.1245 51.8738C19.0854 51.1356 19.2784 50.1248 19.6362 49.0799C20.664 46.0589 21.6407 43.0209 22.6742 39.9999C22.9184 39.2787 22.8389 38.8528 22.1632 38.3815C19.534 36.553 16.9673 34.6393 14.3608 32.7824C13.4522 32.1351 12.7367 31.4253 13.1115 30.2157C13.4977 28.9664 14.5368 28.8926 15.6328 28.9096C17.1887 28.938 18.7503 28.9153 20.3063 28.9153C20.3063 28.9153 20.3063 28.9153 20.3063 28.921H20.2949Z" fill="black"/>
<path d="M106.263 28.9209C107.915 28.9209 109.568 28.8812 111.22 28.9379C112.021 28.9663 112.339 28.6994 112.578 27.9158C113.532 24.7755 114.61 21.675 115.599 18.5405C115.917 17.541 116.45 16.8142 117.529 16.7972C118.631 16.7801 119.182 17.5467 119.494 18.5121C120.454 21.5047 121.487 24.4746 122.345 27.4956C122.68 28.6824 123.236 28.9777 124.395 28.9436C127.507 28.8584 130.624 28.9266 133.736 28.9039C134.764 28.8982 135.638 29.1253 135.968 30.2156C136.291 31.2718 135.786 32.0157 134.945 32.6177C132.305 34.5086 129.687 36.4393 127.024 38.2962C126.28 38.813 126.166 39.307 126.456 40.1418C127.512 43.2025 128.461 46.2973 129.511 49.3581C129.857 50.3632 129.835 51.2377 128.949 51.8794C128.063 52.521 127.183 52.2655 126.348 51.6522C123.81 49.7783 121.232 47.9612 118.727 46.0418C117.887 45.4001 117.313 45.3036 116.422 45.9964C113.969 47.9044 111.419 49.6761 108.915 51.5216C108.069 52.1463 107.189 52.5665 106.212 51.9134C105.139 51.1979 105.309 50.1985 105.667 49.1366C106.678 46.1099 107.592 43.0492 108.654 40.0395C108.955 39.1764 108.733 38.7675 108.074 38.2962C105.462 36.445 102.879 34.554 100.283 32.6801C99.4487 32.0782 98.7048 31.4308 99.108 30.2383C99.4941 29.0969 100.38 28.8641 101.465 28.8925C103.066 28.9323 104.673 28.9039 106.28 28.9039L106.263 28.9209Z" fill="black"/>
<path d="M90.3686 43.3899C89.0171 43.6057 88.5344 43.0492 88.6764 41.6863C88.9035 39.5114 88.4663 37.5751 86.3822 36.3655C86.0359 36.1668 85.8882 36.1724 85.8598 36.587C85.4964 35.5251 85.133 34.4689 84.7695 33.407C85.8485 33.5546 86.8536 33.9408 87.8587 34.3326C87.6429 35.491 87.9041 36.445 88.9092 37.1776C89.8121 37.8419 90.0676 38.8187 90.0847 39.9146C90.1074 41.0787 89.8519 42.2712 90.3686 43.3899Z" fill="#444674"/>
<path d="M51.0788 147.086C50.6416 146.598 50.863 146.002 50.863 145.462C50.846 134.889 50.8346 124.31 50.8744 113.736C50.8744 112.407 50.4996 111.431 49.5286 110.505C45.2867 106.473 41.1243 102.356 36.8937 98.3132C36.1442 97.5977 35.9681 97.1832 36.8029 96.3541C39.6876 93.4978 42.5042 90.5733 45.2867 87.6205C45.9283 86.939 46.2463 87.064 46.8312 87.6432C50.1986 90.9538 53.6455 94.1792 56.9732 97.5296C58.16 98.7221 59.3866 99.4319 61.0901 99.1764C62.0612 99.0287 62.5098 99.3013 62.7483 100.437C63.9181 106.047 68.9947 110.005 74.713 109.943C80.3462 109.88 85.2865 105.826 86.3882 100.25C86.5756 99.3013 86.9503 99.0514 87.7681 99.1764C89.6193 99.466 90.9651 98.7107 92.2598 97.399C95.5079 94.1054 98.9037 90.9595 102.186 87.7056C102.907 86.9901 103.276 87.0526 103.935 87.7624C106.371 90.3916 108.875 92.9526 111.357 95.5421C111.459 96.2633 110.965 96.6948 110.516 97.0866C106.405 100.698 102.811 104.849 98.6652 108.427C97.5466 109.392 97.0298 110.471 97.0355 111.982C97.0809 122.737 97.0582 133.492 97.0582 144.247C97.0582 144.764 97.0412 145.286 97.0468 145.803C97.0468 146.865 96.6039 147.24 95.4852 147.24C81.0049 147.206 66.5302 147.217 52.0498 147.211C51.7262 147.211 51.3854 147.274 51.0788 147.098V147.086Z" fill="#DE646E"/>
<path d="M74.7126 93.5317C65.1555 93.526 56.7967 86.9616 53.8722 77.308C53.5712 76.32 53.293 75.3092 53.1397 74.2927C52.9409 72.9696 52.339 72.2314 50.9648 71.902C48.9375 71.408 47.7961 69.2501 48.2334 67.1093C48.6309 65.1786 50.2039 63.918 52.0494 64.0202C52.6854 64.0542 53.2135 64.3325 53.7586 64.6278C55.536 65.5988 56.9216 64.7641 56.9841 62.7198C57.0238 61.4023 56.8591 60.0849 57.1999 58.7788C57.8642 56.2405 59.8517 54.4234 62.4468 54.0997C63.2873 53.9918 64.1391 53.918 64.9852 53.9407C71.7654 54.1167 78.4263 53.0946 85.0873 52.0554C87.6597 51.6522 89.4201 52.7709 90.0617 55.2695C90.7375 57.9157 91.3508 60.5733 92.0379 63.2195C92.5092 65.0366 93.679 65.508 95.3371 64.6107C97.4723 63.4637 99.5733 64.1167 100.516 66.2235C101.493 68.4097 100.584 71.1638 98.4206 71.743C96.5524 72.2371 96.1265 73.4012 95.7346 75.0309C93.5257 84.287 88.1992 90.6867 78.6989 93.0888C77.3247 93.4352 75.9164 93.5885 74.7012 93.5374L74.7126 93.5317Z" fill="#FEBEA7"/>
<path d="M10.7773 67.7738C10.8682 65.7579 11.8903 64.06 13.9971 63.14C16.2345 62.1633 18.2503 62.6744 19.971 64.3325C24.7977 68.9833 29.6018 73.6511 34.4116 78.3132C36.6489 80.4824 38.8636 82.6687 41.1293 84.8095C41.7142 85.3603 41.7256 85.6783 41.152 86.2518C39.0793 88.3188 37.0464 90.4199 35.0476 92.555C34.5195 93.1172 34.2355 93.0377 33.7245 92.5437C26.6262 85.6329 19.5053 78.7448 12.3957 71.8396C11.3338 70.8061 10.8001 69.5284 10.783 67.7738H10.7773Z" fill="#FEBEA7"/>
<path d="M138.273 68.0236C138.273 69.5681 137.689 70.8629 136.587 71.9304C129.511 78.7958 122.419 85.6442 115.366 92.5323C114.753 93.1342 114.458 93.0093 113.941 92.4641C111.97 90.3687 109.966 88.3018 107.933 86.2631C107.388 85.718 107.32 85.4057 107.933 84.8265C115.031 77.9838 122.09 71.1014 129.182 64.253C130.914 62.5778 133.106 62.2371 135.184 63.1797C137.075 64.0429 138.279 65.9225 138.279 68.0236H138.273Z" fill="#FEBEA7"/>
<path d="M51.0781 147.086C65.6039 147.075 80.1354 147.069 94.6612 147.058C96.8588 147.058 96.6259 147.28 96.6259 145.082C96.6316 134.043 96.6657 123.004 96.5862 111.964C96.5748 110.346 96.9894 109.159 98.25 108.2C100.357 106.587 102.134 104.622 103.963 102.725C106.348 100.25 109.107 98.1542 111.35 95.5364C112.63 96.6607 112.693 97.7851 111.538 98.9094C107.546 102.794 103.571 106.695 99.5334 110.533C98.6021 111.419 98.2103 112.339 98.2159 113.628C98.2557 124.344 98.2273 135.059 98.2557 145.775C98.2557 146.785 98.1251 147.291 96.8985 147.285C81.8901 147.245 66.8816 147.268 51.8731 147.268C51.6006 147.268 51.2996 147.336 51.0838 147.086H51.0781Z" fill="#D62E3C"/>
<path d="M82.4869 99.233C81.9758 103.055 78.4608 106.002 74.4574 105.973C70.5222 105.945 67.0639 102.981 66.5756 99.2217C66.4336 97.802 66.5358 97.6714 67.8476 97.9894C72.3052 99.0627 76.7572 99.1308 81.2206 97.9894C82.5153 97.6601 82.6232 97.8077 82.4869 99.233Z" fill="#FEBEA7"/>
<path d="M82.4871 99.2331C82.5666 98.2507 82.2145 98.0974 81.2662 98.3643C76.7915 99.6135 72.2827 99.5511 67.808 98.3643C66.8767 98.1201 66.4906 98.2109 66.5814 99.2217C66.1612 98.228 66.377 97.2115 66.3997 96.0985C71.8454 97.9554 77.2401 97.9668 82.6802 96.0872C82.6858 97.2115 82.9187 98.2393 82.4871 99.2274V99.2331Z" fill="#FAAB8E"/>
<path d="M96.3593 60.0452C97.2508 59.818 97.5461 59.3013 97.5007 58.3416C97.4098 56.2746 97.3871 54.1962 97.4893 52.1349C97.6483 49.0798 97.0521 46.3541 94.6387 44.2531C96.9328 44.4234 98.5682 46.0816 98.6023 48.3984C98.6477 51.9362 98.591 55.4739 98.6364 59.0117C98.6477 59.9202 98.3184 60.1871 97.4836 60.0792C97.1145 60.0281 96.7284 60.0565 96.3536 60.0508L96.3593 60.0452Z" fill="#444674"/>
<path d="M74.3207 15.6217C74.7182 14.9459 74.7523 15.5592 74.8261 15.7807C75.3939 17.4729 75.9845 19.1651 76.4785 20.88C76.8647 22.2145 77.6483 22.8108 79.0452 22.7653C81.0214 22.7085 83.0032 22.7483 85.3939 22.7483C83.9629 23.8045 82.7988 24.6733 81.629 25.5308C79.6718 26.9618 79.0736 28.8376 79.8346 31.1583C80.2491 32.4359 80.6466 33.7193 80.8056 35.2128C79.3065 34.1338 77.796 33.0663 76.3139 31.9646C75.6949 31.5047 75.0759 31.1128 74.2696 31.1355C74.0027 30.6529 74.0822 30.1248 74.0822 29.608C74.0822 26.0646 74.1106 22.5268 74.0651 18.9891C74.0481 17.8534 74.3547 16.7517 74.315 15.6217H74.3207Z" fill="#FEC229"/>
<path d="M74.3211 15.6217C74.6448 20.7949 74.73 25.9681 74.2757 31.1356C72.5437 31.8283 71.2717 33.2139 69.7215 34.185C69.2161 34.503 68.8243 35.014 67.9384 35.173C68.5233 33.3786 69.0684 31.7091 69.6136 30.0453C70.3177 27.8874 70.1928 27.5126 68.3132 26.1498C66.8652 25.1049 65.4228 24.0601 63.6113 22.754C65.8828 22.754 67.7624 22.754 69.642 22.754C71.7317 22.754 72.0326 22.5325 72.68 20.5734C73.2251 18.921 73.7703 17.2742 74.3211 15.6274V15.6217Z" fill="#FED44F"/>
<path d="M31.2606 26.0987C31.3856 25.7523 31.4821 25.1049 31.7944 26.0078C32.3396 27.6092 32.9301 29.1992 33.3674 30.8289C33.7706 32.3281 34.6848 32.8732 36.1556 32.8391C37.9443 32.7937 39.7274 32.8278 41.9477 32.8278C40.5621 33.8499 39.4662 34.662 38.3645 35.4626C36.4755 36.8369 35.8963 38.6464 36.6269 40.8914C37.0641 42.2201 37.5014 43.5489 37.9727 44.9856C35.6048 43.725 33.9523 41.6353 31.4878 40.8119C30.9597 40.227 31.0335 39.4944 31.0392 38.796C31.1016 34.5654 30.8291 30.3235 31.2663 26.0987H31.2606Z" fill="#FEC229"/>
<path d="M31.2608 26.0988C31.6299 26.553 31.4709 27.0925 31.4766 27.5922C31.488 31.9988 31.4823 36.411 31.4823 40.8176C29.773 41.3571 28.5862 42.7143 27.1211 43.6342C26.5419 43.9976 26.0876 44.5768 25.162 44.7926C25.6674 43.248 26.1274 41.8398 26.5873 40.4258C27.53 37.5354 27.53 37.5184 25.1052 35.758C23.89 34.8721 22.6691 33.992 21.2949 32.9982C22.618 32.6291 23.8105 32.9074 24.9803 32.8392C25.781 32.7938 26.5817 32.8392 27.3824 32.8222C28.4954 32.7938 29.2279 32.277 29.5686 31.1811C30.1024 29.4775 30.6873 27.791 31.2551 26.0988H31.2608Z" fill="#FED44F"/>
<path d="M117.575 40.8119C115.905 41.2208 114.804 42.5382 113.43 43.4184C112.686 43.8954 111.981 44.4462 111.056 45.1106C111.72 43.0663 112.282 41.2378 112.907 39.4263C113.373 38.0805 113.077 37.0925 111.857 36.2804C110.346 35.2753 108.909 34.1566 107.075 32.8222C109.199 32.8222 110.897 32.8222 112.6 32.8222C114.758 32.8222 115.156 32.5326 115.826 30.4599C116.331 28.8983 116.825 27.331 117.331 25.7694C117.342 25.7296 117.393 25.6672 117.416 25.6728C117.484 25.6899 117.541 25.7296 117.603 25.758C118.432 29.6592 117.916 33.6115 118.023 37.5411C118.052 38.637 118.336 39.8068 117.581 40.8119H117.575Z" fill="#FED44F"/>
<path d="M117.574 40.812C117.586 35.7921 117.591 30.7779 117.603 25.7581C118.381 27.314 118.75 29.0176 119.301 30.653C119.914 32.4644 120.362 32.8165 122.248 32.8279C124.019 32.8336 125.797 32.8279 127.977 32.8279C126.24 34.0942 124.82 35.1334 123.395 36.1669C121.725 37.3878 121.617 37.7285 122.27 39.7387C122.821 41.4309 123.366 43.1231 123.985 45.0482C121.623 43.6569 119.925 41.7319 117.574 40.812Z" fill="#FEC229"/>
<path d="M74.1281 86.7515C71.499 86.6436 69.1992 85.2296 67.4161 82.9355C66.7119 82.0269 66.8596 81.0332 67.7398 80.2949C68.5632 79.6078 69.4717 79.6646 70.3065 80.3517C70.4882 80.4994 70.6415 80.6811 70.8062 80.8514C73.3729 83.4579 75.6784 83.4693 78.2167 80.8855C79.3808 79.6987 80.4881 79.5113 81.3967 80.3404C82.3564 81.2206 82.2485 82.4074 81.056 83.6623C79.2729 85.5363 77.1605 86.7458 74.1338 86.7458L74.1281 86.7515Z" fill="black"/>
<path d="M90.4139 69.6306C90.4537 71.2774 89.9142 72.1008 88.699 72.2541C87.4667 72.4074 86.6888 71.7033 86.5241 70.5335C86.3708 69.4432 85.9279 68.688 84.7978 68.7164C83.7359 68.7448 83.3441 69.5057 83.1965 70.5222C83.0261 71.6976 82.2652 72.4018 81.0329 72.2598C79.812 72.1178 79.2896 71.3058 79.301 70.0906C79.3294 67.1775 81.9415 64.6676 84.9228 64.7187C87.8699 64.7641 90.4026 67.2343 90.4196 69.642L90.4139 69.6306Z" fill="black"/>
<path d="M69.767 69.6534C69.7954 71.3001 69.256 72.1179 68.0294 72.2541C66.8766 72.3847 66.1725 71.7544 65.8942 70.6414C65.8602 70.5051 65.8318 70.3632 65.8204 70.2269C65.7352 69.2729 65.1504 68.7277 64.2645 68.7107C63.3048 68.688 62.7597 69.2559 62.5893 70.261C62.3338 71.726 61.5047 72.4131 60.3576 72.2712C59.1595 72.1235 58.5291 71.1468 58.6711 69.6363C58.9323 66.8481 61.6296 64.554 64.4405 64.7187C67.3991 64.8947 69.7614 67.2797 69.7727 69.6534H69.767Z" fill="black"/>
</g>
<defs>
<clipPath id="clip0_205_857">
<rect width="148.211" height="159" fill="white"/>
</clipPath>
</defs>
</svg>
