<svg width="156" height="159" viewBox="0 0 156 159" fill="none" xmlns="http://www.w3.org/2000/svg">
<g clip-path="url(#clip0_205_834)">
<path d="M0.0283929 79.517C0.0283929 53.4126 0.0340714 27.3026 0 1.19818C0 0.300964 0.0851786 0 1.12436 0C52.2485 0.0340714 103.373 0.0340714 154.503 0.00567857C155.394 0.00567857 155.587 0.210107 155.587 1.09029C155.564 53.3502 155.559 105.61 155.599 157.87C155.599 158.915 155.286 158.989 154.4 158.989C103.322 158.966 52.2429 158.966 1.16411 158.994C0.187393 158.994 0.00567857 158.796 0.00567857 157.83C0.03975 131.726 0.0340714 105.616 0.0340714 79.5114L0.0283929 79.517Z" fill="#FEFEFE"/>
<path d="M98.7902 139.085C97.8248 138.012 97.0469 137.143 96.1212 136.115C95.8998 138.5 95.349 140.743 93.3387 141.805C91.408 142.822 90.4938 144.395 89.4035 146.087C86.6494 150.369 82.5438 152.561 77.4785 152.35C72.0157 152.129 67.9669 149.375 65.5365 144.429C65.1276 143.594 64.679 143.015 63.7818 142.6C60.0282 140.891 58.7733 136.479 61.022 132.987C61.4706 132.288 61.5217 131.834 61.0277 131.135C59.9999 129.665 59.6364 127.989 60.0226 126.172C59.3922 126.291 59.1254 126.78 58.7676 127.138C54.5541 131.334 50.3406 135.536 46.1555 139.761C45.4741 140.448 44.7302 140.919 43.8273 141.266C34.7132 144.747 25.5877 148.199 16.519 151.8C12.0443 153.577 8.28511 150.704 7.78539 147.058C7.65479 146.087 7.83082 145.173 8.17154 144.293C11.8229 134.741 15.4912 125.196 19.1482 115.638C19.3754 115.042 19.7842 114.611 20.2215 114.179C26.3997 108.006 32.5667 101.823 38.762 95.6669C39.4094 95.0253 39.5911 94.5483 39.239 93.617C37.1606 88.1201 36.7461 82.4359 37.6774 76.6608C37.8591 75.5478 37.5638 75.332 36.4906 75.349C31.5786 75.4058 26.6723 75.4001 21.7604 75.366C15.3095 75.3206 9.9035 71.3456 8.29079 65.5194C6.41686 58.7505 9.77857 51.9079 16.3487 49.273C17.2629 48.9039 17.4276 48.5348 17.2402 47.6262C14.8666 35.9852 23.0324 23.8387 34.7189 21.5843C44.5144 19.6933 53.6569 23.7024 58.7619 32.1805C59.1992 32.913 59.6024 33.0777 60.4258 32.9074C68.1032 31.2947 75.156 34.1907 79.5228 40.7495C79.9316 41.3628 80.3405 41.6524 81.0901 41.6808C83.9748 41.7887 86.797 42.3338 89.5341 43.2083C90.579 43.5433 91.1468 43.2878 91.851 42.578C100.142 34.2475 108.478 25.9568 116.769 17.6207C120.408 13.9637 124.792 12.0386 129.909 11.9818C137.813 11.891 145.139 17.3424 147.331 24.9517C149.358 31.9988 147.66 38.1771 142.521 43.3616C135.11 50.8403 127.643 58.2622 120.198 65.7068C119.029 66.8766 117.376 67.8647 116.842 69.2786C116.314 70.6812 117.546 72.3678 117.791 73.9805C118.046 75.6557 118.307 77.3308 118.455 79.0174C118.518 79.7385 118.688 80.0793 119.432 79.96C119.477 79.9543 119.528 79.96 119.574 79.96C120.778 80.0452 122.436 79.4319 123.072 80.2269C123.674 80.9878 123.253 82.5722 123.253 83.793C123.265 86.4279 124.094 87.9838 126.008 88.6937C128.16 89.4943 129.937 88.8356 131.487 87.2002C132.345 86.2973 133.168 84.7357 134.219 84.8152C135.15 84.8833 135.973 86.3768 136.842 87.2456C138.813 89.2161 140.738 91.232 142.776 93.1286C143.594 93.8839 143.498 94.287 142.731 94.9344C141.873 95.6669 141.09 96.496 140.329 97.3308C139.029 98.7561 138.722 100.431 139.488 102.186C140.272 103.975 141.675 104.957 143.713 104.9C144.94 104.866 146.166 104.923 147.393 104.883C147.995 104.866 148.211 105.02 148.205 105.661C148.177 109.676 148.177 113.685 148.205 117.7C148.205 118.376 147.927 118.461 147.365 118.449C146.138 118.421 144.912 118.461 143.685 118.432C141.72 118.387 140.306 119.284 139.534 121.033C138.75 122.816 138.994 124.548 140.346 126.019C141.209 126.956 142.118 127.853 143.049 128.722C143.526 129.165 143.543 129.432 143.049 129.914C140.249 132.657 137.478 135.428 134.736 138.228C134.253 138.716 133.986 138.716 133.543 138.228C132.742 137.365 131.885 136.547 131.05 135.718C129.596 134.281 127.87 133.855 125.996 134.656C124.134 135.445 123.174 136.91 123.253 139C123.299 140.13 123.236 141.266 123.27 142.402C123.293 143.06 123.208 143.401 122.379 143.395C118.461 143.344 114.543 143.35 110.624 143.395C109.858 143.401 109.665 143.163 109.699 142.441C109.755 141.266 109.687 140.079 109.721 138.904C109.773 136.876 108.83 135.44 107.018 134.679C105.213 133.918 103.481 134.213 102.061 135.616C100.988 136.672 100.005 137.819 98.8129 139.108L98.7902 139.085Z" fill="black"/>
<path d="M51.7372 70.8572C41.5896 70.8572 31.4363 70.8912 21.2887 70.8401C17.626 70.8231 14.8435 69.1025 13.1967 65.8316C11.5727 62.6119 11.8736 59.4205 13.9577 56.479C16.1098 53.441 19.7952 52.1349 23.4579 53.0037C27.0354 53.8555 29.7611 56.8368 30.2381 60.6585C30.3687 61.6806 30.6924 61.9361 31.5953 61.7942C31.777 61.7658 31.9701 61.7942 32.1632 61.7942C34.2188 61.7942 35.0062 60.7682 34.5254 58.7164C33.2818 53.4012 28.9377 49.2616 23.5147 48.4666C22.061 48.2565 21.6578 47.6772 21.4591 46.2973C20.2552 37.9101 25.0649 29.6762 33.032 26.6779C40.9593 23.691 49.9087 26.6438 54.5538 33.7307C55.0535 34.4916 55.15 34.8607 54.2642 35.457C49.9428 38.3644 47.3079 42.4189 46.4845 47.5807C46.3653 48.336 45.9734 48.5517 45.3545 48.7902C41.9984 50.102 40.0677 52.5892 39.4601 56.127C39.3295 56.9049 39.409 57.4273 40.4084 57.2627C40.7776 57.2002 41.1637 57.2286 41.5385 57.2627C42.9241 57.3762 43.9916 57.399 44.3891 55.4966C44.7753 53.6738 46.8195 52.6403 48.7048 52.7312C50.6242 52.822 52.3789 54.1111 52.7764 56.0645C53.0092 57.1945 53.5089 57.3706 54.4572 57.2683C55.0194 57.2059 55.6043 57.1775 56.1551 57.2683C57.6372 57.5239 57.6486 56.7913 57.4044 55.667C56.7116 52.4813 54.9399 50.1758 51.9189 48.9663C50.9365 48.5688 50.9252 48.0747 51.1239 47.2627C52.7423 40.6301 59.3067 36.0191 65.8712 36.9277C73.134 37.9328 78.2675 43.9862 77.9268 51.1355C77.8529 52.7312 77.4895 53.9861 75.8995 54.9685C73.0659 56.7232 71.6519 59.5455 71.1863 62.839C71.0727 63.6567 71.1295 64.2587 72.2028 64.0542C72.3391 64.0259 72.4867 64.0542 72.6287 64.0542C73.5259 64.0542 74.531 64.3041 75.2919 63.9804C76.1096 63.6283 75.7973 62.4415 76.1096 61.6522C77.3589 58.5233 80.6638 56.6778 83.8609 57.4103C87.2964 58.194 89.5622 61.2547 89.2555 64.6846C88.9489 68.0747 86.0812 70.8231 82.6229 70.8401C72.3334 70.8856 62.0381 70.8572 51.7486 70.8572H51.7372Z" fill="#E6E8EC"/>
<path d="M82.0043 46.1782C88.3643 46.9334 94.0543 49.0799 99.0457 52.8221C109.347 60.5449 114.486 70.8799 114.151 83.793C113.969 90.8288 110.937 96.6663 106.155 101.698C102.907 105.122 99.3524 108.245 96.2803 111.839C94.1849 114.293 92.3791 116.922 91.0389 119.863C90.7948 120.403 90.6414 120.795 89.8692 120.772C87.0412 120.692 84.2019 120.675 81.374 120.749C80.3235 120.778 80.1645 120.408 80.1758 119.471C80.2326 116.218 80.2099 112.958 80.1929 109.699C80.1702 105.474 77.2968 102.617 73.0663 102.583C72.0725 102.578 71.0844 102.583 70.0907 102.583C67.6716 102.583 66.5757 101.862 66.6041 100.278C66.6324 98.739 67.6887 98.0462 70.0226 98.0462C77.1946 98.0462 84.3723 98.069 91.5443 98.0292C94.2189 98.0122 96.2519 96.7572 97.5125 94.4006C98.7504 92.0837 98.6255 89.7498 97.2002 87.5579C95.843 85.4682 93.8442 84.4517 91.3456 84.4517C85.6329 84.4517 79.9203 84.4517 74.2133 84.4517C71.8283 84.4517 71.1299 83.7362 71.1242 81.3172C71.1242 79.7101 71.1867 78.1031 71.1015 76.5017C71.0447 75.525 71.4138 75.3547 72.2883 75.366C75.7352 75.4115 79.1821 75.4228 82.6233 75.366C88.3587 75.2752 93.0321 70.9935 93.7306 65.2638C94.3836 59.9203 90.8856 54.7131 85.5705 53.1855C84.5086 52.8789 82.9981 53.072 82.4302 52.4076C81.9078 51.8 82.4529 50.3406 82.4018 49.2616C82.3564 48.2849 82.1463 47.3139 81.9873 46.1725L82.0043 46.1782Z" fill="#FDE9A6"/>
<path d="M79.8466 93.526C76.3089 93.526 72.7655 93.5147 69.2277 93.526C65.1335 93.5431 62.0784 96.4619 62.0784 100.323C62.0784 104.19 65.1335 107.092 69.2334 107.121C70.6019 107.132 71.9705 107.086 73.339 107.132C74.753 107.177 75.6445 108.035 75.6558 109.449C75.6956 112.941 75.6558 116.433 75.6842 119.926C75.6842 120.533 75.5196 120.732 74.8949 120.732C71.8739 120.715 68.8529 120.726 65.8376 120.766C65.372 120.772 65.1505 120.607 64.9858 120.227C62.6008 114.616 58.4668 110.357 54.2022 106.189C52.1466 104.179 50.0966 102.157 48.2113 99.9712C42.2318 93.0263 40.6929 84.9855 42.2261 76.1496C42.3283 75.5534 42.5441 75.3716 43.1233 75.3716C50.6758 75.383 58.2226 75.3887 65.7751 75.366C66.4963 75.366 66.6269 75.6215 66.6156 76.2632C66.5815 78.1996 66.5815 80.136 66.6099 82.0667C66.661 86.0246 69.5514 88.9434 73.5093 88.9661C79.1255 89.0002 84.7416 88.9775 90.3577 88.9775C90.687 88.9775 91.0164 88.9661 91.3514 88.9775C92.8108 89.04 93.7648 89.9031 93.7989 91.1865C93.833 92.5209 92.8449 93.4863 91.3174 93.4976C87.4957 93.5204 83.674 93.5033 79.8523 93.509L79.8466 93.526Z" fill="#FDE9A6"/>
<path d="M118.983 86.7346C121.152 93.3444 128 95.5704 133.423 91.391C134.042 90.914 134.366 90.9708 134.786 91.5046C134.9 91.6522 135.053 91.7715 135.184 91.9078C135.814 92.5438 136.74 93.0832 136.995 93.8498C137.279 94.6959 136.16 95.2752 135.74 96.0304C132.645 101.601 136.189 108.546 142.611 109.324C143.446 109.426 143.758 109.597 143.684 110.465C143.599 111.499 143.963 112.68 143.565 113.543C143.162 114.418 141.822 114.009 140.913 114.298C135.019 116.155 132.679 123.441 136.507 128.336C137.16 129.176 137.16 129.596 136.382 130.238C135.655 130.834 135.138 131.828 134.332 132.152C133.395 132.532 132.821 131.328 132.038 130.903C126.433 127.847 119.539 131.425 118.784 137.859C118.693 138.62 118.551 138.932 117.733 138.875C116.7 138.801 115.536 139.142 114.65 138.773C113.656 138.353 114.11 136.979 113.809 136.053C111.879 130.164 104.622 127.876 99.738 131.726C98.9884 132.316 98.5341 132.43 97.9492 131.635C97.6994 131.294 97.3814 130.999 97.052 130.732C96.1661 130.011 95.6778 129.273 95.9958 127.978C96.3251 126.621 95.8425 125.247 95.0588 124.083C94.6273 123.441 94.65 122.924 94.9396 122.265C96.3138 119.137 98.1991 116.371 100.703 113.725C101.629 118.824 104.076 122.686 108.352 125.264C111.805 127.348 115.547 127.95 119.516 127.24C126.972 125.9 132.503 118.949 132.322 111.152C132.168 104.503 127.029 96.0191 115.905 95.6954C117.234 92.7312 118.12 89.6704 118.489 86.4734C118.795 86.303 118.863 86.5756 118.983 86.7459V86.7346Z" fill="#FEC629"/>
<path d="M129.949 16.4224C135.696 16.7291 140.108 19.3355 142.459 24.7245C144.804 30.1021 143.85 35.139 139.966 39.5569C139.035 40.6131 138.046 42.2145 136.933 42.3508C135.758 42.4928 134.861 40.6813 133.873 39.7046C128.682 34.5598 123.543 29.3582 118.336 24.2305C117.513 23.4184 117.638 23.0323 118.365 22.26C121.045 19.4207 123.986 17.0868 128.024 16.6041C128.631 16.5303 129.239 16.4849 129.943 16.4167L129.949 16.4224Z" fill="#A8B1BC"/>
<path d="M22.0949 120.38C28.0233 126.308 33.8154 132.101 39.6417 137.921C39.3748 138.375 38.8069 138.387 38.3583 138.563C34.2413 140.17 30.113 141.731 26.0074 143.361C25.2011 143.679 24.6843 143.645 24.054 142.986C21.7655 140.613 19.4032 138.307 17.075 135.968C16.7229 135.616 16.3141 135.343 16.581 134.662C18.4322 129.943 20.238 125.207 22.0949 120.374V120.38Z" fill="#CBD0D8"/>
<path d="M41.845 99.0115C43.7474 101.942 46.0017 104.474 48.4322 106.848C49.0852 107.484 49.1193 107.842 48.4435 108.512C43.4123 113.48 38.4152 118.483 33.4464 123.509C32.7991 124.162 32.4413 124.202 31.7883 123.52C29.6361 121.277 27.4158 119.097 25.2011 116.91C24.7355 116.45 24.5027 116.155 25.0989 115.565C30.5901 110.124 36.0472 104.65 41.5157 99.1932C41.5781 99.1307 41.6804 99.1023 41.8507 99.0172L41.845 99.0115Z" fill="#FE816E"/>
<path d="M59.642 119.665C59.642 120.056 59.3353 120.238 59.1138 120.46C54.2814 125.298 49.4376 130.124 44.6221 134.98C44.1111 135.496 43.8044 135.547 43.2706 135.002C41.0333 132.708 38.7618 130.442 36.4677 128.199C35.9282 127.677 35.951 127.37 36.4734 126.848C41.5955 121.766 46.6891 116.655 51.7885 111.55C52.1917 111.147 52.4813 110.851 53.0321 111.419C55.3376 113.787 57.5863 116.201 59.2842 119.063C59.4035 119.267 59.5227 119.471 59.6363 119.665H59.642Z" fill="#5DD5B2"/>
<path d="M127.79 112.368C127.569 116.28 125.547 119.818 121.34 121.839C117.188 123.833 113.123 123.373 109.511 120.545C106.002 117.796 104.628 114.094 105.337 109.647C105.445 108.989 105.763 108.54 106.212 108.097C108.307 106.053 110.334 103.952 112.14 101.641C113.077 100.443 114.474 100.46 115.74 100.369C122.248 99.9087 127.79 105.139 127.785 112.362L127.79 112.368Z" fill="#FBD670"/>
<path d="M95.3203 45.3434C99.2385 41.4308 103.015 37.6659 106.774 33.884C107.245 33.407 107.541 33.3786 108.023 33.8727C110.306 36.1952 112.612 38.5007 114.934 40.7835C115.434 41.2775 115.371 41.5728 114.906 42.0328C111.782 45.1219 108.688 48.2338 105.587 51.3399C105.269 51.6636 105.036 51.8794 104.565 51.4592C101.845 49.0344 98.7956 47.081 95.326 45.3434H95.3203Z" fill="#FE816E"/>
<path d="M118.864 44.7869C119.035 44.9459 119.245 45.1276 119.443 45.3263C121.675 47.558 123.89 49.8067 126.15 52.0043C126.729 52.5665 126.723 52.8902 126.15 53.458C122.595 56.9617 119.063 60.4881 115.565 64.0543C114.867 64.7698 114.617 64.6278 114.219 63.8158C112.805 60.9254 111.011 58.2792 108.898 55.8601C108.404 55.2922 108.325 54.9799 108.91 54.4064C111.97 51.4081 114.986 48.3587 118.018 45.332C118.24 45.1105 118.41 44.7869 118.859 44.7869H118.864Z" fill="#5DD5B2"/>
<path d="M114.224 26.553C114.468 26.7744 114.673 26.9562 114.866 27.1492C120.902 33.1856 126.933 39.2275 132.986 45.2412C133.497 45.7465 133.617 46.0532 133.026 46.5813C132.18 47.3309 131.391 48.1486 130.624 48.9777C130.192 49.449 129.908 49.3808 129.488 48.9549C123.395 42.8391 117.291 36.7403 111.192 30.6416C110.885 30.3349 110.556 30.0794 111.05 29.6194C111.976 28.7506 112.856 27.825 113.759 26.9278C113.884 26.8028 114.037 26.7006 114.224 26.553Z" fill="#E6E8EC"/>
<path d="M77.927 125.258C81.5101 125.258 85.0876 125.258 88.6708 125.258C90.4766 125.258 91.4931 126.07 91.5215 127.478C91.5499 128.898 90.505 129.784 88.7503 129.784C81.4931 129.79 74.2359 129.784 66.9787 129.789C65.8997 129.789 65.048 129.466 64.5539 128.438C64.1678 127.632 64.2927 126.871 64.7924 126.178C65.3376 125.417 66.1383 125.241 67.0355 125.241C70.6641 125.258 74.2927 125.247 77.9213 125.247L77.927 125.258Z" fill="#CBD0D8"/>
<path d="M77.933 134.327C81.465 134.327 85.0028 134.327 88.5348 134.327C90.4656 134.327 91.4991 135.105 91.5218 136.553C91.5502 138.006 90.4883 138.852 88.6087 138.858C81.3969 138.858 74.1908 138.864 66.979 138.858C65.3322 138.858 64.3214 137.944 64.3441 136.564C64.3668 135.19 65.3719 134.361 67.0471 134.332C67.3311 134.332 67.615 134.332 67.8932 134.332C71.2379 134.332 74.5826 134.332 77.9273 134.332L77.933 134.327Z" fill="#CBD0D8"/>
<path d="M69.9658 143.435H85.8374C84.1906 146.093 81.8851 147.541 78.9607 147.842C75.2242 148.228 72.2713 146.734 69.9715 143.435H69.9658Z" fill="#A8B1BC"/>
<path d="M14.5432 140.011C16.4228 141.907 18.2116 143.702 20.0855 145.593C18.1378 146.342 16.207 147.109 14.2593 147.836C13.6176 148.074 13.0441 147.836 12.6068 147.336C12.1582 146.831 12.1298 146.257 12.3854 145.627C13.1122 143.793 13.7993 141.947 14.5432 140.011Z" fill="#CBD0D8"/>
<path d="M118.983 86.7345C118.819 86.6436 118.654 86.5527 118.489 86.4619V85.6328C119.029 85.9281 119.012 86.3256 118.983 86.7345Z" fill="#B58D1D"/>
<path d="M123.259 111.697C123.242 115.394 120.192 118.438 116.49 118.455C112.731 118.466 109.647 115.377 109.664 111.618C109.681 107.864 112.799 104.815 116.569 104.866C120.26 104.917 123.27 107.995 123.253 111.703L123.259 111.697Z" fill="black"/>
<path d="M118.722 111.692C118.705 112.913 117.683 113.918 116.468 113.924C115.196 113.924 114.145 112.833 114.208 111.561C114.265 110.34 115.315 109.369 116.53 109.403C117.751 109.443 118.739 110.477 118.722 111.692Z" fill="#F3F3F3"/>
</g>
<defs>
<clipPath id="clip0_205_834">
<rect width="155.593" height="159" fill="white"/>
</clipPath>
</defs>
</svg>
