<svg fill="none" height="158" viewBox="0 0 150 158" width="150" xmlns="http://www.w3.org/2000/svg" xmlns:xlink="http://www.w3.org/1999/xlink"><clipPath id="a"><path d="m0 0h149.141v158h-149.141z"/></clipPath><g clip-path="url(#a)"><path d="m109.478 140.097c.946 1.911.872 2.387-.643 3.901-4.037 4.044-8.08 8.087-12.1235 12.124-2.5039 2.498-4.8409 2.504-7.3571.025-1.7992-1.768-3.5921-3.549-5.3479-5.36-.5935-.612-1.1067-.798-2.0093-.563-6.3618 1.669-12.8411 2.244-19.4069 1.929-4.2165-.204-8.3773-.872-12.4577-1.935-.9027-.235-1.4096-.049-2.0093.569-1.7868 1.855-3.6106 3.672-5.453 5.465-2.405 2.337-4.7605 2.312-7.1284-.056-11.2893-11.283-22.5785-22.566-33.8616-33.861-2.244249-2.244-2.231884-4.767-.00618-7.036 1.40342-1.434 3.54875-2.658 4.00626-4.346.42659-1.57-.98302-3.617-1.50235-5.472-8.79152-31.3264 6.86877-64.1556 36.85387-76.8173 15.7036-6.6339 31.6915-6.8255 47.7228-.9707.3833.1422.7604.2968 1.1499.4328.0865.0309.1978.0185.4019.0309.1174-2.7018-.0124-5.4097.3091-8.1053.476-3.9877 1.3292-7.8765 2.6708-11.64783.7667-2.14533 2.5039-2.98615 4.7853-2.47919 2.2623.50079 4.3893-.04327 6.4423-.90882 2.399-1.02012 4.767-2.12061 7.141-3.19636 5.459-2.473006 10.881-2.398815 16.359.05564 3.122 1.39725 6.126 3.09126 9.477 3.95062 1.323.34004 2.64.37096 3.963.08038 2.313-.51315 4.007.39568 4.81 2.66466 1.973 5.6199 2.949 11.4005 2.875 17.3667-.192 16.6866-7.716 29.3422-21.261 38.6592-1.138.7852-1.348 1.3354-.903 2.6647 4.717 14.1146 4.618 28.2231-.34 42.2639-.371 1.051-.365 1.743.525 2.516 1.243 1.076 2.381 2.281 3.506 3.481 2.003 2.133 1.991 4.618-.074 6.702-4.347 4.389-8.749 8.729-13.089 13.125-1.181 1.193-2.355 1.286-3.697.408-1.28-.692-1.032-1.743-.606-2.794.278-.68.853-1.144 1.36-1.657 3.698-3.704 7.401-7.401 11.098-11.104 1.41-1.41 1.41-1.416.056-2.776-1.849-1.849-3.697-3.703-5.558-5.54-1.175-1.224-2.424-2.38-3.58-3.623-.705-.76-1.243-.834-2.022-.049-10.677 10.714-21.3727 21.404-32.087 32.081-.8408.835-.7233 1.385.0557 2.152 3.1531 3.103 6.2876 6.225 9.385 9.385.7976.816 1.354.865 2.1392.006 1.1437-1.255 2.3926-2.405 3.5735-3.629 2.6956-2.659 5.3226-5.385 8.0556-8.013 1.447-1.397 2.591-1.391 3.809-.13z" fill="#000"/><path d="m120.306 111.706c2.188 2.151 4.352 4.334 6.59 6.442.785.735.285 1.076-.198 1.564-4.142 4.124-8.259 8.272-12.414 12.383-1.15 1.138-1.453 2.3-.476 3.679-1.663 1.224-3.104 2.665-4.328 4.322-1.385-.971-2.547-.662-3.691.488-2.64 2.665-5.335 5.28-8.0062 7.907-2.3802-1.65-4.2288-3.857-6.1701-5.959-.6863-.742-.439-1.75.0309-2.616.272-.5.6863-.896 1.0881-1.292 8.6493-8.649 17.2983-17.305 25.9603-25.942.445-.445.804-1.125 1.626-.976z" fill="#fd646f"/><path d="m92.4969 112.268c-.8717-1.101-1.9475-1.564-3.2396-.822-3.7528 2.157-7.8209 2.275-11.9817 1.984-6.3495-.439-11.8457 1.54-16.4331 5.973-1.8115 1.749-3.5983 3.524-5.3974 5.286-.7481.432-1.1623-.174-1.5703-.575-4.0187-3.988-8.0744-7.939-11.9941-12.019-2.6152-2.721-2.5596-6.399.0185-9.169 1.6508-1.768 3.4561-3.3879 5.0944-5.1622.9336-1.0016 2.1144-.5627 3.1655-.8409 3.4189-.7666 5.8301-2.7203 6.9615-6.0712.2844-.8346.5935-.7975 1.323-.6059 6.6277 1.7435 12.0559-2.8439 11.5551-9.7189-.037-.544-.2287-1.0139.6245-1.2798 5.3726-1.6507 7.4561-4.7481 7.048-10.3186-.0123-.1545-.0123-.3091-.0123-.4636-.3401-.7296 0-1.2922.4822-1.7806 1.7126-1.7497 3.4498-3.4808 5.1933-5.1995.7666-.7543 1.2736-.7048 1.422.4575 1.3416 1.8424 2.3308 2.0093 4.0866.6924 1.9661-1.4714 4.2969-1.4157 5.892.1422 1.6321 1.589 1.7125 3.963.204 6.0156-1.051 1.422-1.0881 2.4792-.1237 3.4375.915.9088 2.1145.8594 3.4622-.1484 2.0215-1.5147 4.2225-1.4714 5.8795.1237 1.676 1.6136 1.774 3.9382.254 5.997-1.033 1.3972-1.089 2.5101-.174 3.4437.965.9892 2.059.9273 3.555-.1855 1.917-1.4344 4.322-1.3293 5.886.2658 1.515 1.5457 1.589 4.0867.142 5.9167-.346.4389-.76.8346-1.162 1.2365-5.088 5.0944-10.183 10.1826-15.2707 15.2765-1.4035 1.41-1.4715 2.01-.5132 3.797-1.1747 1.731-2.5843 3.227-4.3834 4.321z" fill="#d78954"/><path d="m59.7602 28.557c4.7235-.6987 9.4469-.5008 14.1518.0865 5.4838.6801 10.7575 2.1948 15.8457 4.3587.7728.3276 1.1623.7357 1.3416 1.6322 3.1469 15.8272 12.8777 26.4734 26.7577 33.8368 1.224.6491 2.473.7295 3.679.0309.717-.4142 1.007-.3277 1.273.4822 4.099 12.6371 4.105 25.2679-.031 37.8927-.024.08-.111.136-.377.439-1.1-1.162-2.157-2.337-3.276-3.45-2.331-2.318-4.637-2.405-7.042-.229-.557.507-.884.687-1.453.031-.742-.853-1.552-1.657-2.399-2.405-.631-.556-.538-.896.025-1.4527 2.936-2.8872 5.904-5.7559 8.729-8.7483 4.538-4.8161 2.783-12.4701-3.276-14.739-1.126-.4204-2.671-.031-3.345-.7481-.668-.7172-.322-2.2381-.773-3.3509-1.403-3.4746-3.981-5.4159-7.666-5.8363-.847-.0989-1.206-.2226-1.298-1.1932-.464-4.6987-3.6234-7.8024-8.3036-8.2166-.7419-.068-1.0015-.2164-1.0819-1.0386-.6492-6.5906-6.6709-10.1455-12.7978-7.5798-.6059.2535-.9397.2844-1.4219-.2597-1.8548-2.0835-4.2289-2.9799-7.011-2.949-3.7095.0433-7.4128.0124-11.1223.0062-1.1499 0-2.2752.1113-3.2644.7419-.4822.3091-.9644.2658-1.4776.2411-5.354-.2411-9.1501 2.9861-9.7374 8.3649-.0865.8099-.3215.9459-1.0696 1.0139-4.7048.439-7.895 3.6539-8.3278 8.3897-.068.7666-.2658 1.0139-1.0634 1.0943-6.0588.6121-9.5272 5.5519-8.0434 11.4995.1855.748.068.9397-.6059 1.1932-6.8502 2.5657-8.4947 10.0713-3.3633 15.2522 1.5951 1.6075 3.1964 3.2149 4.81 4.7976.4946.4885.7852.8161.0989 1.4591-1.694 1.5826-3.3138 3.2396-4.9212 4.9086-.5132.532-.8532.581-1.3354 0-.6925-.841-1.5828-1.446-2.572-1.904-.6491-.804-.7109-1.811-.8841-2.7635-2.1082-11.518-1.1128-22.7825 3.0295-33.707 2.7017-7.1284 6.5843-13.5829 11.6972-19.3079 6.6771-7.487 14.6773-12.9957 23.9634-16.7175 1.2921-.5193 2.6399-.7605 3.9568-1.1561z" fill="#d7ebfd"/><path d="m59.7601 28.557c-2.8316 1.3045-5.8116 2.2504-8.6061 3.6539-4.8347 2.4235-9.2861 5.3849-13.3851 8.909-4.5503 3.9073-8.4144 8.402-11.5798 13.4654-4.4391 7.1099-7.5365 14.7453-8.8101 23.0979-.6182 4.0619-1.0077 8.1238-.8841 12.229.1175 3.8393.6244 7.6292 1.422 11.3878.0618.297.0618.606.0865.915-2.1206-.414-3.8207.291-5.2304 1.892-.9768 1.113-2.0216 2.164-3.17777 3.388-2.66466-7.7341-3.72805-15.3386-3.20872-23.11.97684-14.7885 6.59669-27.5925 16.95239-38.2079 9.5891-9.8363 21.2864-15.617 34.8879-17.5397.507-.0742 1.0263-.0495 1.5395-.068z" fill="#c3e1fe"/><path d="m107.347 8.84096c2.473-1.25504 4.989-2.41117 7.573-3.40655 3.376-1.30451 6.708-1.15613 10.072.15456 3.394 1.32305 6.578 3.13453 10.052 4.27829 1.985.65534 4 1.03864 6.065.72954.915-.136 1.15.2349 1.367.9459 4.983 16.4578 1.651 34.4303-13.466 46.5913-.476.3833-.989.7233-1.484 1.0819-.457.2102-.785-.0927-1.125-.2968-3.814-2.2998-6.967-5.3725-9.991-8.5813-.29-.3091-.723-.6553-.334-1.187.427-.272.885-.204 1.348-.1484 7.827.9212 14.77-2.8748 18.381-9.793.927-1.7744.501-2.98-.6-4.2845-.012-2.1021.099-4.2041.278-6.3 1.676-1.7867 1.744-2.2504.718-4.4823-3.067-6.6832-8.297-10.3866-15.593-10.8502-5.045-.3215-9.453 1.5641-13.267 4.8656-.464.4018-.835 1.3292-1.75.6615-.012-3.4313.056-6.8502 1.756-9.97854z" fill="#fdd300"/><path d="m116.003 49.2685c3.357 3.8764 7.116 7.2891 11.524 9.9476-2.158 1.8548-4.619 3.2273-7.073 4.6307-.513.2906-.903.2906-1.416.0062-11.852-6.5287-20.3897-15.7098-23.2646-29.3175-1.6322-7.7467-1.119-15.4377 1.2612-22.9927.1361-.4328.0619-1.1191.8841-.983 3.3513.5749 6.3803-.59974 9.4223-1.72496-.835 3.37566-1.41 6.79456-1.496 10.28156.266.7295-.285 1.1684-.637 1.6321-4.958 6.6153-4.501 16.3219 1.44 22.7393 2.177 2.3494 4.86 3.9321 7.939 4.8595.525.1607 1.286.0865 1.409.9212z" fill="#f9c502"/><path d="m79.1423 146.185c-8.2908 1.991-18.0592 1.985-26.1521-.025.5936-.63 1.1747-1.199 1.694-1.811 1.6013-1.892 1.589-4.309-.068-6.164-.7542-.841-1.558-1.639-2.3864-2.411-.4761-.445-.5255-.724-.0247-1.218 4.2103-4.155 8.4082-8.328 12.5752-12.52.7913-.797 1.286-.723 2.0773.087 4.099 4.191 8.2475 8.34 12.4392 12.439.8161.797.6677 1.181-.0556 1.904-4.031 4.006-4.031 5.119-.0989 9.725z" fill="#d7ebfd"/><path d="m21.4839 111.675c3.3633 3.326 6.7328 6.64 10.0837 9.978 6.2319 6.214 12.4268 12.458 18.6897 18.64.8346.829.8285 1.243-.0124 2.028-2.1453 1.991-4.1979 4.087-6.2876 6.14-.9335.482-1.2983-.371-1.7558-.817-3.7033-3.653-7.3696-7.338-11.0482-11.017-4.878-4.878-9.7621-9.756-14.6401-14.64-2.5905-2.59-2.5781-3.462.0494-6.096 1.1623-1.168 2.3185-2.343 3.5055-3.487.3833-.371.7172-.927 1.4158-.729z" fill="#96d629"/><path d="m120.305 111.706c-.383.34-.791.655-1.15 1.02-8.742 8.729-17.472 17.465-26.2075 26.201-1.8671 1.867-1.8547 2.708 0 4.594 1.6198 1.644 3.2211 3.32 4.8286 4.983-1.3973 1.434-2.8069 2.856-4.1732 4.315-.4823.514-.7728.408-1.2242-.043-3.5858-3.617-7.184-7.233-10.8194-10.801-.915-.896-.0556-1.23.3895-1.669 7.3449-7.363 14.7021-14.714 22.0532-22.065 3.53-3.531 7.079-7.042 10.578-10.61.686-.698 1.082-.797 1.775-.018 1.261 1.422 2.627 2.739 3.95 4.105z" fill="#fd4755"/><path d="m21.4838 111.674c-2.1577 1.762-4.0063 3.84-5.9476 5.824-.8655.891-.7852 1.966-.0123 2.943.1916.241.4265.452.6429.668 8.8101 8.81 17.614 17.62 26.4302 26.418.3895.389.6986.921 1.354.927-1.2551 1.286-2.5534 2.535-3.7404 3.883-.779.89-1.2613.921-2.133.031-5.1933-5.286-10.4608-10.504-15.6974-15.741-5.5704-5.57-11.1099-11.159-16.72979-16.68-.9521-.934-.86555-1.391.0371-2.257 3.40037-3.295 6.74509-6.646 10.04039-10.047.779-.803 1.1932-.741 1.8918.038 1.2303 1.378 2.5596 2.664 3.8517 3.987z" fill="#8ac628"/><path d="m50.1709 96.9232c-2.2689 0-3.4993 1.6692-4.8223 3.0978-1.6198 1.749-3.7219 3.085-4.6183 5.483-.8718 2.344-.3277 4.464 1.255 6.127 4.0866 4.279 8.334 8.402 12.5196 12.588.2658.266.5502.457.9397.464-2.0897 2.126-4.2288 4.204-6.2505 6.398-.8161.885-1.2056.452-1.8053-.148-5.3046-5.323-10.6277-10.634-15.9447-15.951-2.0402-2.04-4.0433-4.117-6.133-6.102-.7234-.686-.6492-1.051.0247-1.682 1.6446-1.558 3.2458-3.165 4.81-4.803.5873-.612 1.0634-.68 1.8733-.371 4.9955 1.922 9.7807-.198 11.8642-5.1936.1979-.476.1979-1.051.9954-.6306 1.6631.8779 3.4808.7852 5.2861.7172z" fill="#c37a44"/><path d="m92.4964 112.268c1.4591-1.441 2.9243-2.881 4.3834-4.322 1.4343.971 2.6646.718 3.8082-.544.897-.983 1.904-1.873 2.813-2.844.507-.544.866-.742 1.453-.068.934 1.076 2.628 2.003 2.745 3.123.093.89-1.657 2.009-2.634 2.979-4.507 4.489-9.026 8.971-13.5393 13.447-.4389.378-.7913.075-1.0757-.191-1.7497-1.657-3.456-3.357-5.1068-5.113-.204-.223-.3771-.495-.2411-.835 2.0093-.6 4.0434-1.113 5.8919-2.151 1.6879-.946 2.0155-1.651 1.5024-3.487z" fill="#fee4c1"/><path d="m85.1088 117.906c2.0774 2.115 3.9074 4.483 6.4237 6.14-2.4916 2.522-4.9831 5.045-7.4685 7.573-.3586.365-.6121.594-1.1067.099-4.1979-4.229-8.4267-8.433-12.7669-12.773 4.9955-1.861 10.0528-.154 14.9184-1.039z" fill="#fdd1a3"/><path d="m64.6134 84.1934c-1.7744 2.2071-4.4576 2.5843-6.4422.643-5.8487-5.7312-11.6231-11.5366-17.379-17.3605-1.4529-1.4714-1.5889-3.623-.5688-5.2737 1.0325-1.6569 2.8439-2.3617 4.7543-1.8424-.8841.5379-1.0201 1.286-.7295 2.2381.3771 1.255.9707 2.3617 1.9042 3.2891 5.589 5.5828 11.178 11.1656 16.7546 16.767.544.544 1.2798.8655 1.7064 1.5332z" fill="#fdd1a3"/><path d="m84.7622 61.9488c-.3338-.1113-.2164-1.2056-1.0015-.3895-1.8486 1.9227-3.7466 3.7837-5.6447 5.657-.3647.3647-.4389.7913-.4575 1.255-.7419-2.9676-2.9799-4.8409-5.0387-6.8255-.6553-.6306-.7728-.9892-.0495-1.6816 2.1886-2.0897 4.2845-4.2907 6.4546-6.3989 1.8856-1.8362 4.2844-1.9599 6.0897-.3833 1.8177 1.5889 2.0341 4.0001.4328 6.065-.6553.8408-.8903 1.7002-.7914 2.7079z" fill="#c37944"/><path d="m51.9827 90.6788c-1.7126 2.0155-4.3649 2.405-6.2011.6182-4.9336-4.7852-9.7745-9.6694-14.5845-14.5721-1.2056-1.2242-1.4344-2.8502-.7234-4.4391.6863-1.5332 1.8177-2.5843 3.6415-2.5843.1051.1175.2473.2412.2473.3834 0 3.1345 1.8919 5.1747 3.9754 7.184 3.3014 3.1778 6.4978 6.4669 9.7374 9.7004 1.2736 1.2674 2.5101 2.5719 3.9074 3.7095z" fill="#fdd1a3"/><path d="m64.613 84.1933c-.6925-.1175-1.2118-.5194-1.6941-1.0016-5.7806-5.7868-11.5674-11.5736-17.3542-17.3604-1.1005-1.1005-1.5889-2.4916-1.8672-3.9692-.1854-.9892.1361-1.6136 1.2798-1.4962.8903.0248 1.5333.5627 2.1083 1.1376 5.6693 5.6508 11.3387 11.3016 16.9771 16.9833 1.7188 1.7373 1.8548 3.6724.5503 5.7065z" fill="#fee4c1"/><path d="m72.1994 73.1142c-1.8671 2.1825-4.5256 2.3061-6.7142.1979-2.4482-2.3556-4.8161-4.7853-7.215-7.1841-2.6213-2.6214-5.2736-5.2057-7.8456-7.8703-2.2442-2.3308-1.6816-5.8611 1.0387-7.1285.6863-.3215 1.0448-.4389 1.0943.6121.3091 6.7698 2.6832 9.6076 9.416 11.4067 3.3818 3.351 6.5782 6.8935 10.2258 9.9724z" fill="#fdd1a3"/><path d="m64.9102 49.7939h5.2427c.7234 0 1.4282.068 2.0959.3895 1.929.9274 2.0464 1.5209.5441 3.0171-.9089.9088-1.9784 1.7063-2.6956 2.745-2.2257 3.2273-5.4035 2.9738-8.5257 2.269-3.7713-.8532-4.7976-4.1732-4.3339-7.419.1298-.9212.8965-1.0078 1.6569-1.0078h6.0156z" fill="#fee4c1"/><path d="m51.9821 90.6785c-.8902-.0927-1.4467-.7109-2.0278-1.2921-4.3834-4.3896-8.7297-8.8101-13.1749-13.1378-1.8919-1.8362-2.8749-3.9197-2.6709-6.5534 1.4653-.2906 2.6152.3276 3.6044 1.3045 4.6307 4.6059 9.2614 9.2119 13.8488 13.8549 1.7682 1.7868 1.8548 3.7961.4204 5.8178z" fill="#fee4c1"/><path d="m38.6964 96.5458c-1.7929 1.9228-4.266 2.1948-6.1145.4514-2.6956-2.5349-5.2923-5.1748-7.858-7.8456-1.2427-1.2922-1.5085-2.9244-.779-4.5813.6863-1.558 1.8548-2.5595 3.6786-2.541.136.1546.2906.3215.2906.5255-.0062 2.8687 1.6198 4.8224 3.5611 6.6957 2.4606 2.3741 4.9336 4.742 7.2274 7.2891z" fill="#fdd1a3"/><path d="m38.6966 96.5458c-.6801-.2844-1.2056-.7604-1.7187-1.2797-2.2134-2.2319-4.3834-4.5009-6.6771-6.6524-1.9352-1.8177-2.8811-3.9444-2.6832-6.5844 1.4096-.2844 2.5286.303 3.4745 1.2365 2.4607 2.4174 4.9151 4.8409 7.3139 7.3201 1.7806 1.8424 1.8362 3.9692.2844 5.9538z" fill="#fee4c1"/><path d="m72.1991 73.1143c-.6801-.0989-1.2427-.4266-1.7249-.9088-2.7389-2.745-5.4901-5.4839-8.2166-8.2351-.1978-.1978-.7419-.3648-.2843-.8223.0494-.0061.0989-.0185.1545-.0185 3.8991-.0247 7.1532 1.4075 9.7622 4.2968 1.5827 1.7497 1.694 3.7466.3153 5.6941z" fill="#fee4c1"/><path d="m122.178 17.7932c5.175.9026 8.582 3.9506 10.436 8.7606.588 1.5147 1.441 2.3184 3.098 2.0958.136 2.133.043 4.2598-.285 6.3742-1.613-.2968-2.559.3956-3.245 1.8671-2.004 4.2535-5.28 6.9429-9.998 7.7219-2.794-1.3911-4.544-3.7466-5.916-6.4421-.186-.3648-.285-.8038.259-1.0325 1.929 1.1746 3.413.5873 4.866-.9892 2.059-2.2319 4.272-4.3154 6.424-6.4669.402-.4019.828-.7852 1.1-1.286.526-.9582.575-1.8918-.358-2.6337-.878-.6924-1.731-.4822-2.498.2535-1.632 1.5703-3.215 3.1901-4.822 4.7914-1.661 1.6569-3.327 1.6301-4.996-.0804-.464-.476-.989-.915-1.162-1.6074-.037-3.3324 1.434-6.0588 3.542-8.47 1.002-1.1438 1.966-2.4112 3.555-2.8625z" fill="#96d629"/><path d="m122.178 17.7933c-1.737 1.5827-3.554 3.0727-4.785 5.1438-1.174 1.9722-1.966 4.0433-2.052 6.3556-.767 0-1.119-.6492-1.633-1.0448-1.211-.9274-2.034-1.0078-2.874-.2288-.835.7728-.86 1.8795.105 3.0171 1.521 1.7991 3.258 3.388 4.946 5.0263.321.3092.995.4699.655 1.1685.025 1.8239 1.329 2.98 2.356 4.2165.964 1.1623 2.182 2.1144 3.289 3.1592-7.147 1.7682-15.005-3.864-16.025-11.4809-1.119-8.3958 5.453-15.8024 13.898-15.6355.711.0124 1.422.1979 2.127.2968z" fill="#8ac628"/><path d="m116.534 37.2373c-1.904-1.929-3.815-3.8455-5.706-5.7807-1.28-1.3107-1.429-2.6214-.47-3.6415 1.045-1.1066 2.349-.9892 3.74.3401.408.3833.822.7604 1.237 1.1376 1.082 1.0819 2.052 2.8563 3.282 3.0603 1.188.1917 2.133-1.7868 3.203-2.7883 1.311-1.2242 2.529-2.5534 3.827-3.7899 1.162-1.1128 2.424-1.1623 3.413-.204.952.9274.958 2.3246-.124 3.4251-2.801 2.8563-5.626 5.6941-8.488 8.4886-1.249 1.2179-2.239 1.1066-3.914-.2473z" fill="#000"/></g></svg>