<svg width="153" height="148" viewBox="0 0 153 148" fill="none" xmlns="http://www.w3.org/2000/svg">
<path d="M0.0395692 73.8132C0.0395692 49.6708 0.0452478 25.5284 0.0168549 1.38604C0.0111763 0.358368 0.124748 0 1.41946 0C51.1751 0.0421609 100.936 0.0368908 150.692 0.0158103C151.794 0.0158103 152.186 0.115942 152.18 1.31753C152.134 49.6023 152.14 97.8923 152.163 146.177C152.163 147.199 152.055 147.563 150.76 147.563C101.005 147.521 51.2432 147.526 1.4876 147.547C0.380283 147.547 -0.00585938 147.447 -0.00585938 146.246C0.0452478 122.103 0.0338906 97.9608 0.0338906 73.8132H0.0395692Z" fill="#FEFEFE"/>
<path d="M61.6517 6.96708C64.8998 6.76681 64.8828 6.76681 64.9169 9.67592C64.9964 16.0264 65.1043 22.3822 65.1838 28.7326C65.2065 30.6984 64.8601 31.0726 62.7931 31.062C61.8618 31.062 61.5835 31.2886 61.6233 32.1793C61.7312 34.5403 61.7028 36.9118 61.7653 39.2729C61.7937 40.3427 61.487 41.2966 60.5614 41.9395C59.9368 42.3717 60.1866 42.6773 60.4649 43.12C61.0043 43.9843 61.6687 44.8381 61.9356 45.7814C62.265 46.9356 63.0713 46.846 63.7755 46.5298C70.868 43.3572 78.2842 40.8802 85.4733 37.9184C85.7232 37.813 85.9617 37.6866 86.3308 37.5074C83.8663 36.0844 82.0378 34.2715 80.9531 31.8473C78.2558 25.813 81.7084 18.8986 88.4773 16.838C95.0758 14.8301 102.202 18.4138 103.826 24.5798C104.258 26.2083 104.406 27.8789 104.19 29.5337C104.031 30.7564 104.462 30.6035 105.36 30.2504C111.884 27.6892 118.432 25.1911 124.939 22.5982C126.069 22.1503 126.495 22.203 127.012 23.3571C134.349 39.7577 141.754 56.1319 149.141 72.5114C151.078 76.8013 149.704 80.0635 145.144 81.8712C144.383 82.1716 144.07 82.472 144.468 83.1887C146.172 86.2348 145.695 89.2335 144.61 92.3798C143.321 96.1057 142.401 99.9424 141.339 103.742C140.908 105.286 140.141 106.678 139.187 107.979C138.823 108.469 138.682 108.838 139.255 109.318C139.88 109.84 140.005 110.588 140.016 111.357C140.061 113.766 140.181 116.174 140.192 118.583C140.192 119.373 140.311 119.732 141.316 119.684C143.338 119.595 143.792 120.037 143.826 121.961C143.934 128.006 144.008 134.051 144.122 140.095C144.133 140.754 144.002 141.06 143.213 141.023C142.418 140.991 141.629 141.25 140.822 141.086C140.68 140.975 140.578 140.844 140.51 140.68C140.374 140.301 140.351 139.906 140.368 139.516C140.55 134.667 140.01 129.829 140.067 124.981C140.09 123.3 139.971 123.21 138.148 123.21C134.195 123.21 130.243 123.131 126.291 123.157C125.632 123.157 124.973 123.157 124.337 123.357C123.497 123.505 122.645 123.468 121.799 123.468C114.014 123.468 106.228 123.468 98.4432 123.468C96.2683 123.468 96.1944 123.51 96.2342 125.523C96.325 130.161 95.99 134.804 96.4386 139.442C96.5692 140.786 96.3421 140.97 94.8316 141.112C92.6567 140.933 92.668 140.933 92.6396 138.889C92.5545 133.329 92.4466 127.763 92.3728 122.203C92.35 120.448 92.7816 120.006 94.6839 120.032C95.6777 120.048 95.9559 119.795 95.9048 118.862C95.7856 116.543 95.814 114.219 95.7629 111.9C95.7402 110.836 96.0241 109.892 96.961 109.228C97.4437 108.886 97.4721 108.612 97.1428 108.164C95.831 106.372 94.9963 104.396 94.6385 102.256C94.576 101.871 94.5079 101.497 93.9684 101.729C92.9236 102.182 91.6856 102.288 90.9077 103.226C90.3739 103.863 89.6243 104.248 88.852 104.57C82.6908 107.136 76.5295 109.687 70.3683 112.253C69.3178 112.691 68.2956 112.886 67.3643 112.058C66.433 111.231 66.5977 110.319 67.0293 109.297C69.3689 103.763 65.9277 98.2718 59.5677 97.6657C55.9618 97.3179 52.9862 98.7303 51.1407 101.682C49.3235 104.585 49.2383 107.574 51.3792 110.435C52.4978 111.927 54.0027 113.054 55.5643 114.13C57.7619 115.642 57.5404 117.576 55.0248 118.63C47.8017 121.655 40.5558 124.643 33.344 127.69C32.549 128.022 32.2878 127.9 31.9357 127.173C23.8381 110.319 15.695 93.4865 7.59737 76.6327C5.9449 73.1966 7.43837 69.7236 11.1124 68.1056C12.85 67.3415 12.9125 67.3204 12.2311 65.5865C11.7087 64.2585 11.7314 63.0358 12.1459 61.6656C13.5826 56.9277 14.8887 52.1583 16.2231 47.3941C16.6433 45.8974 17.3532 44.5324 18.2901 43.2729C18.7047 42.7142 18.9488 42.2768 18.256 41.7182C17.6598 41.2386 17.5633 40.5219 17.5519 39.7946C17.5065 37.344 17.3872 34.8881 17.3815 32.4375C17.3815 31.6417 17.1544 31.4046 16.2742 31.4099C14.0823 31.4257 13.8097 31.1622 13.7757 29.1384C13.6621 22.0449 13.5883 14.9513 13.469 7.85246C13.4577 7.18842 13.611 6.86168 14.3833 6.90911C15.1783 6.95654 15.9789 6.74046 16.7683 6.95654C17.2907 7.5099 17.1885 8.19501 17.1714 8.8327C17.0295 14.6509 17.6428 20.4533 17.4781 26.2662C17.4327 27.8525 17.6314 27.9896 19.335 27.9685C21.1237 27.9474 22.8954 27.5732 24.6899 27.726C34.457 27.6839 44.2242 27.7155 53.9913 27.705C55.922 27.705 57.8584 27.5521 59.7891 27.6944C60.851 27.7682 61.345 27.3413 61.3167 26.3189C61.186 20.7168 61.5779 15.1094 61.0895 9.51254C61.0157 8.63243 60.7545 7.65746 61.6347 6.91965L61.6517 6.96708Z" fill="black"/>
<path d="M61.6521 6.96708C61.6975 11.8261 61.743 16.6904 61.7941 21.5495C61.8111 23.257 61.7486 24.9698 61.8679 26.672C61.9474 27.7946 61.6578 28.1582 60.3517 28.1529C51.5272 28.116 42.7027 28.1687 33.8782 28.1845C30.8118 28.1898 27.7454 28.1845 24.6789 28.1845C24.6392 26.9092 25.6045 26.0343 26.2462 25.0752C27.8589 22.6773 29.6079 20.3532 31.7828 18.3453C33.0605 17.2333 34.2644 16.0528 35.5136 14.9144C35.7919 14.6667 36.0929 14.4401 36.4109 14.2346C36.797 14.0027 37.1036 13.6917 37.4216 13.3913C41.3739 10.3768 45.8202 8.28988 50.8174 7.24113C51.6465 7.06722 52.4869 7.11465 53.3273 7.10411C56.0985 7.05667 58.8753 7.00397 61.6464 6.95654L61.6521 6.96708Z" fill="#00C5DF"/>
<path d="M94.8379 141.139C95.8373 141.16 95.9963 140.675 95.9793 139.827C95.8544 134.583 95.8033 129.339 95.7124 124.095C95.701 123.474 95.6783 123.047 96.621 123.047C105.752 123.047 114.883 123.005 124.02 122.978C124.111 122.978 124.202 123.015 124.293 123.036C126.928 122.825 129.562 123.01 132.197 122.941C133.049 122.92 133.208 123.326 132.907 123.932C132.47 124.807 131.913 125.618 131.323 126.414C127.808 131.136 123.412 134.978 117.967 137.708C114.758 139.316 111.402 140.628 107.671 140.728C118.217 140.48 128.773 140.612 139.33 140.58C139.846 140.58 140.374 140.58 140.795 140.939C140.868 140.981 140.88 141.034 140.834 141.102C129.08 141.118 117.325 141.207 105.57 141.097C101.987 141.065 98.4154 141.329 94.8379 141.134V141.139Z" fill="#FEBA25"/>
<path d="M53.3332 7.11468C51.5899 7.58372 49.8012 7.83669 48.0522 8.32681C44.1794 9.40718 40.8972 11.3993 37.6945 13.5706C37.6206 13.6233 37.5355 13.6602 37.456 13.7076C37.0925 13.892 36.7916 14.1345 36.5985 14.4876C36.3146 14.6668 36.0306 14.8459 35.7467 15.0251C34.3782 16.0528 33.1402 17.1964 32.0386 18.4718C29.1596 21.4388 26.7405 24.701 24.6792 28.2004C22.4645 28.2794 20.2499 28.3321 18.0409 28.4481C17.2289 28.4902 17.0188 28.2426 17.0131 27.4995C16.962 20.6694 16.8655 13.8341 16.7803 7.00401C28.6939 6.99347 40.6076 6.98293 52.5212 6.97766C52.7938 6.97766 53.0607 7.07252 53.3332 7.12522V7.11468Z" fill="#07BDCA"/>
<path d="M48.1091 135.858C46.2768 136.881 44.912 136.584 44.0148 134.968C43.3277 133.734 42.6917 132.475 41.9592 131.268C41.573 130.636 41.6298 130.335 42.368 129.987C44.3499 129.049 44.3328 129.012 45.3266 130.815C46.2465 132.48 47.1664 134.145 48.1091 135.853V135.858Z" fill="#020202"/>
<path d="M34.3323 137.434C34.3323 138.435 34.2698 139.447 34.3493 140.443C34.4175 141.313 34.037 141.508 33.2079 141.371C32.7934 141.302 32.3618 141.281 31.9416 141.302C31.334 141.334 31.1353 141.123 31.158 140.549C31.2261 138.541 31.2545 136.533 31.2545 134.525C31.2545 133.813 31.4646 133.566 32.2994 133.582C34.6219 133.629 34.6219 133.582 34.497 135.726C34.4629 136.296 34.4288 136.86 34.3948 137.423C34.372 137.423 34.3493 137.423 34.3323 137.423V137.434Z" fill="#010101"/>
<path d="M115.15 11.5943C115.666 11.5468 115.706 11.921 115.842 12.1634C116.836 13.9289 117.773 15.726 118.812 17.4652C119.215 18.1397 119.102 18.4612 118.352 18.6931C118.046 18.788 117.75 18.9461 117.489 19.12C116.694 19.6417 116.268 19.51 115.842 18.6351C115.053 17.0119 114.167 15.4151 113.179 13.8868C112.56 12.9381 112.895 12.5271 113.821 12.1792C114.292 12.0001 114.746 11.7734 115.155 11.589L115.15 11.5943Z" fill="#020202"/>
<path d="M23.9007 130.588C23.861 130.683 23.8326 130.767 23.7928 130.846C22.6741 132.849 21.5384 134.841 20.4538 136.854C20.204 137.318 19.9711 137.086 19.6815 136.981C18.0802 136.405 17.6732 135.41 18.4606 133.998C19.0853 132.875 19.6986 131.748 20.3289 130.63C21.2147 129.049 21.2261 129.044 22.9808 129.919C23.3272 130.093 23.8155 130.124 23.9064 130.588H23.9007Z" fill="#010101"/>
<path d="M139.466 19.5469C138.58 19.1305 137.688 18.8723 137.03 18.3558C136.484 17.9237 137.206 17.4283 137.427 17.0067C138.245 15.4415 139.165 13.9289 139.954 12.3532C140.334 11.5995 140.652 11.4362 141.493 11.8578C143.355 12.7906 143.378 12.7432 142.413 14.4559C141.595 15.9105 140.783 17.3703 139.96 18.8249C139.818 19.0778 139.636 19.3044 139.466 19.5521V19.5469Z" fill="#010101"/>
<path d="M126.399 11.1199C126.399 10.1186 126.433 9.11203 126.388 8.11071C126.359 7.45722 126.501 7.21479 127.308 7.25695C129.625 7.3729 129.613 7.32546 129.556 9.51783C129.517 11.0462 129.477 12.5745 129.505 14.1028C129.522 14.8406 129.255 15.1358 128.46 15.0304C128.091 14.9829 127.705 14.9566 127.336 15.0093C126.456 15.1252 126.195 14.8196 126.274 14.0027C126.371 13.0488 126.297 12.0844 126.297 11.1252C126.331 11.1252 126.365 11.1252 126.399 11.1252V11.1199Z" fill="black"/>
<path d="M31.2262 77.0754C30.4199 73.7552 30.0451 70.3718 29.392 67.0306C29.2785 66.4403 29.5851 66.2453 29.9883 66.0082C31.7259 64.9963 33.191 63.7051 34.3608 62.1399C34.7356 61.6392 35.2523 61.3863 35.8145 61.1544C44.8491 57.4232 53.8837 53.6866 62.9183 49.9554C64.5481 49.2808 65.0421 49.46 65.7747 50.9673C68.5572 56.7117 71.3737 62.4456 73.9291 68.2796C74.3152 69.1597 74.7468 69.9713 75.8428 70.2242C77.1545 70.5246 78.1767 69.9449 78.7672 68.5484C80.1244 65.3231 82.6173 63.468 86.3368 63.0095C90.908 62.4456 95.4111 65.771 96.0244 70.1979C96.6093 74.4298 93.31 78.1768 88.5968 78.688C87.1374 78.8461 85.678 78.9568 84.23 78.688C81.0727 78.1031 79.443 80.891 80.6071 83.2362C83.3441 88.754 85.6894 94.4404 88.2618 100.032C88.6934 100.97 88.5798 101.402 87.569 101.813C82.3107 103.969 77.0693 106.161 71.8337 108.375C70.9365 108.754 70.8059 108.554 70.9308 107.716C71.9245 101.207 66.9842 95.2573 60.1472 94.6881C52.9013 94.0873 46.7117 99.1519 46.5811 105.861C46.5129 109.476 48.2733 112.343 51.141 114.683C51.7088 115.147 52.2653 115.616 52.8389 116.09C52.4754 116.564 51.8849 116.633 51.3908 116.838C45.9735 119.099 40.5448 121.329 35.1444 123.621C34.2927 123.985 33.969 123.848 33.5942 123.073C29.0343 113.597 24.446 104.137 19.8577 94.6723C16.797 88.364 13.7419 82.0504 10.6698 75.7473C9.56815 73.4864 10.7777 71.0938 13.3274 70.4614C14.2189 70.2401 14.0883 70.8988 14.2189 71.2783C15.8373 75.937 17.4273 80.6064 19.0457 85.2651C19.9486 87.8633 22.3904 89.0807 25.2751 88.4588C28.8469 87.6947 30.4142 85.3126 31.1751 82.2665C31.3228 81.6709 31.4023 81.0596 31.5158 80.4588C31.6805 79.9371 31.6919 79.4153 31.5045 78.8936C31.4874 78.7513 31.4761 78.6037 31.459 78.4614C31.1922 78.0187 31.4931 77.497 31.2149 77.0596L31.2262 77.0754Z" fill="#D12731"/>
<path d="M84.7185 84.19C84.3154 83.6946 84.1336 83.1149 83.8895 82.3929C88.2279 82.7143 92.3449 82.4614 95.6044 79.4258C97.5237 77.634 98.8127 75.5259 99.1648 73.0121C99.9201 67.5522 96.9445 62.7195 91.6748 60.738C86.0416 58.6194 80.5277 60.3533 76.4108 65.5549C75.9735 65.3124 75.9281 64.8487 75.7634 64.4798C73.4352 59.3203 71.1581 54.1451 68.7901 49.0014C68.3756 48.1055 68.5062 47.7735 69.4659 47.4099C76.036 44.9013 82.5777 42.3295 89.1421 39.8051C90.3062 39.3571 91.283 38.8301 91.2602 37.5021C91.2375 36.1687 90.2381 35.6786 89.0683 35.257C85.4 33.9289 83.174 30.7352 83.3443 27.141C83.509 23.668 86.1155 20.6114 89.7611 19.6153C93.3954 18.6193 97.3079 19.8893 99.5169 22.7721C100.335 23.8367 100.749 25.0172 100.885 26.3031C101.05 27.8367 100.976 29.365 100.812 30.8933C100.528 33.5811 102.174 34.73 104.883 33.6865C110.925 31.3571 116.973 29.0435 122.975 26.6404C124.258 26.1239 124.769 26.166 125.366 27.4994C131.839 42.0344 138.398 56.5324 144.934 71.041C145.116 71.4416 145.252 71.8579 145.405 72.269C145.491 72.4851 145.542 72.7644 145.36 72.8856C144.202 73.6708 143.054 74.5351 141.453 74.1768C140.499 71.4785 139.545 68.7802 138.602 66.0819C137.575 63.1359 135.076 61.8974 131.873 62.7722C128.37 63.7261 126.995 66.2347 126.348 69.2808C125.752 72.0793 126.706 74.7512 127.058 77.4759C127.132 78.0398 127.2 78.6037 127.268 79.1676C126.984 79.7789 126.348 79.879 125.769 80.0319C117.535 82.219 109.159 83.6946 100.613 84.3217C96.0018 84.659 91.3909 84.9014 86.7685 84.8171C86.0189 84.8013 85.2296 84.8804 84.7185 84.19Z" fill="#FEBA25"/>
<path d="M121.447 91.2151C121.646 91.6842 121.419 91.8897 121.328 92.1268C121.107 92.6907 120.317 93.4127 120.652 93.7237C121.277 94.3087 122.259 94.5827 123.128 94.9253C123.651 95.1308 123.713 94.6407 123.878 94.3561C124.457 93.3548 124.991 92.3271 125.627 91.3574C126.939 89.3548 128.801 87.9002 131.118 86.9779C131.834 86.6934 132.1 86.4193 131.953 85.6288C131.129 81.2757 130.374 76.912 129.613 72.5536C129.318 70.8619 129.636 69.2387 130.408 67.6946C130.914 66.6827 131.76 66.024 132.93 65.7552C134.378 65.4285 135.014 65.7605 135.474 67.0938C137.739 73.6656 139.999 80.2427 142.276 86.8146C142.475 87.3837 142.481 87.8791 142.311 88.4641C140.88 93.3126 139.46 98.1611 138.114 103.025C137.643 104.728 136.587 106.108 135.644 107.568C135.343 108.032 134.917 108.043 134.434 108.048C123.719 108.127 113.009 108.201 102.294 108.301C101.612 108.306 101.158 108.101 100.732 107.616C99.1023 105.771 98.1823 103.653 97.8132 101.307C97.7394 100.828 97.7053 100.422 98.3868 100.158C106.076 97.202 113.747 94.2085 121.464 91.2098L121.447 91.2151Z" fill="#EECCB1"/>
<path d="M23.9065 85.5233C23.0093 85.5866 22.4699 85.1755 22.2087 84.4219C19.8634 77.6024 17.5238 70.7776 15.1729 63.958C15.0309 63.547 15.1445 63.1992 15.2524 62.8144C16.6607 57.9185 18.0917 53.0278 19.4489 48.1214C19.9202 46.4191 21.0162 45.0594 21.9247 43.5838C22.1859 43.1622 22.5664 43.1569 23.0037 43.1569C33.8554 43.0779 44.7072 42.9935 55.5589 42.8987C56.0757 42.8987 56.4334 43.0199 56.7628 43.4046C57.7395 44.543 58.5004 45.7814 59.091 47.1306C59.3749 47.7735 59.1932 48.0581 58.5458 48.3269C51.5782 51.2044 44.6163 54.0819 37.6714 57.0015C36.5811 57.46 35.8656 56.8065 35.0763 56.4534C34.304 56.1109 33.986 56.2004 33.6396 56.933C32.0667 60.2215 29.8804 63.0094 26.0758 64.3375C25.4171 64.5694 25.5704 64.9488 25.6499 65.381C26.4278 69.7394 27.2115 74.0925 27.9724 78.4509C28.2847 80.2269 28.0178 81.9449 27.1604 83.5629C26.5017 84.8013 25.3943 85.4548 23.9065 85.5339V85.5233Z" fill="#EECCB1"/>
<path d="M84.7186 84.1899C85.2864 84.4639 85.9054 84.4112 86.513 84.4323C90.4653 84.5904 94.4176 84.3849 98.3471 84.1267C108.035 83.4942 117.569 81.9501 126.876 79.3203C127.013 79.2834 127.138 79.2202 127.268 79.1675C127.597 80.8381 127.921 82.514 128.262 84.1794C128.353 84.6115 128.114 84.8065 127.768 85.012C127.013 85.4547 126.28 85.9238 125.445 86.2452C114.491 90.4824 103.543 94.7354 92.5948 98.9778C92.078 99.1781 91.5896 99.6524 91.1808 98.7196C89.0627 93.8606 86.8764 89.0279 84.7129 84.1846L84.7186 84.1899Z" fill="#F89F1D"/>
<path d="M140.794 140.944H107.148C107.137 140.891 107.126 140.833 107.114 140.78C107.949 140.628 108.789 140.506 109.613 140.311C118.256 138.277 125.024 133.713 130.277 127.11C131.021 126.172 131.68 125.17 132.367 124.19C132.566 123.906 132.912 123.616 132.696 123.257C132.509 122.952 132.1 123.089 131.782 123.089C129.283 123.068 126.785 123.057 124.286 123.041C127.767 122.746 131.26 122.92 134.741 122.846C136.296 122.815 137.858 122.82 139.408 122.751C140.209 122.715 140.561 122.852 140.567 123.726C140.601 129.466 140.709 135.205 140.788 140.944H140.794Z" fill="#F89F1D"/>
<path d="M131.748 119.642C124.349 119.732 116.95 119.826 109.551 119.905C106.484 119.937 103.424 119.905 100.357 119.969C99.4145 119.99 99.159 119.716 99.176 118.867C99.2157 116.77 99.1987 114.667 99.1079 112.569C99.0681 111.647 99.3747 111.378 100.363 111.373C109.982 111.336 119.596 111.257 129.216 111.199C130.062 111.194 130.908 111.231 131.754 111.247C131.879 111.378 132.027 111.521 132.044 111.684C132.31 114.187 132.31 116.696 132.044 119.199C132.027 119.368 131.879 119.505 131.748 119.637V119.642Z" fill="#D0CFDE"/>
<path d="M41.1123 31.3624C46.5296 31.315 51.947 31.2833 57.37 31.2043C58.2048 31.1937 58.4035 31.4572 58.3978 32.1845C58.3751 34.3295 58.3694 36.4744 58.4603 38.6141C58.5 39.5363 58.2048 39.7998 57.2053 39.8051C48.0174 39.842 38.8295 39.9316 29.6359 40.0001C28.3639 40.0106 27.0919 39.979 25.8199 39.9685C25.5303 39.7102 25.411 39.373 25.3996 39.0199C25.3258 36.8802 25.3315 34.7353 25.394 32.5956C25.4167 31.7102 25.9164 31.4362 26.859 31.4414C31.0953 31.4783 35.3372 31.4625 39.5734 31.452C40.0844 31.452 40.6125 31.5363 41.1123 31.3624Z" fill="#D0CFDE"/>
<path d="M41.1122 31.3624C40.6636 31.7208 40.1241 31.568 39.6244 31.568C35.445 31.5943 31.2656 31.6259 27.0861 31.5943C26.1151 31.589 25.7744 31.8367 25.7971 32.7695C25.8596 35.1675 25.8198 37.5654 25.8198 39.9633C24.457 39.9843 23.0884 39.9843 21.7256 40.037C20.9817 40.0634 20.7432 39.7841 20.7489 39.1095C20.7602 36.8328 20.7318 34.5561 20.6921 32.2847C20.6807 31.7524 20.8113 31.4995 21.4644 31.4889C28.0117 31.4151 34.5648 31.2465 41.1179 31.3624H41.1122Z" fill="#B4B4C5"/>
<path d="M131.748 119.642C131.748 116.844 131.748 114.045 131.748 111.247C133.111 111.21 134.474 111.178 135.836 111.136C136.546 111.115 136.819 111.4 136.813 112.079C136.796 114.351 136.813 116.622 136.876 118.894C136.893 119.558 136.62 119.705 135.973 119.684C134.564 119.642 133.156 119.653 131.742 119.637L131.748 119.642Z" fill="#B4B4C5"/>
<path d="M141.459 74.1821C142.879 73.7236 144.491 73.6182 145.411 72.269C145.769 73.0174 146.178 73.7499 146.473 74.5194C147.257 76.5536 146.098 78.5141 143.872 79.1202C143.174 79.3099 143.072 78.9621 142.924 78.5299C142.436 77.0806 141.947 75.6314 141.459 74.1821Z" fill="#F79F1D"/>
<path d="M31.5098 78.9094C31.9016 79.4312 31.9016 79.9529 31.5211 80.4746C31.5211 79.9529 31.5154 79.4312 31.5098 78.9094Z" fill="#D23F46"/>
<path d="M31.226 77.0754C31.6633 77.4918 31.4475 78.003 31.4702 78.4773C31.1409 78.0451 31.2033 77.5603 31.226 77.0754Z" fill="#AF5055"/>
<path d="M32.0439 18.4612C32.9128 16.9697 34.1621 15.8366 35.7521 15.0198C34.6277 16.2688 33.3727 17.4019 32.0439 18.4612Z" fill="#3CC8DA"/>
<path d="M36.5986 14.4822C36.5986 13.9552 36.9166 13.7286 37.4504 13.7023C37.263 14.0501 36.9677 14.3031 36.5986 14.4822Z" fill="#3CC8DC"/>
</svg>
