<?xml version="1.0" encoding="UTF-8"?><svg id="Layer_2" xmlns="http://www.w3.org/2000/svg" viewBox="0 0 371.82 97.84"><defs><style>.cls-1{fill:#20a051;font-family:Copperplate, Copperplate;font-size:32.45px;letter-spacing:0em;}.cls-2,.cls-3{fill:#1c94d2;}.cls-3{font-family:BlippoBT-Black, 'Blippo Blk BT';font-size:50.53px;font-weight:800;}.cls-4{fill:#10a550;}.cls-5{fill:#f4c930;}.cls-6{fill:#a9dae5;}.cls-7{fill:#faee20;}.cls-8{letter-spacing:.03em;}.cls-9{letter-spacing:0em;}</style></defs><g id="Layer_1-2"><g id="long_text"><path class="cls-2" d="M64.37,88.09c-1.22-.32-2.77-.73-4.32-1.16-7.22-1.98-14.44-3.97-21.65-5.96-10.08-2.78-20.15-5.55-30.23-8.33-2.15-.59-4.3-1.19-6.45-1.8-1.51-.43-1.98-1.19-1.57-2.71,1.04-3.9,2.12-7.8,3.19-11.69,1.63-5.97,3.27-11.93,4.91-17.9,2.82-10.21,5.65-20.42,8.48-30.63.58-2.1,1.16-4.19,1.74-6.29.37-1.34,1.16-1.86,2.52-1.53,1.92.48,3.82,1.03,5.72,1.56,7.76,2.13,15.53,4.27,23.29,6.41,8.55,2.35,17.1,4.71,25.65,7.07,2.56.71,5.12,1.42,7.68,2.12,1.46.4,1.98,1.23,1.58,2.72-.83,3.11-1.7,6.21-2.55,9.32-2.58,9.4-5.17,18.8-7.76,28.19-2.68,9.72-5.37,19.45-8.05,29.17-.27.99-.86,1.44-2.18,1.44ZM63.68,86.36c.97,0,1.58-.32,1.82-1.15.16-.54.3-1.09.45-1.63,3.06-11.08,6.13-22.17,9.18-33.25,2.7-9.8,5.39-19.61,8.09-29.42.4-1.44,0-2.15-1.49-2.56-4.46-1.24-8.93-2.49-13.39-3.72-9.61-2.65-19.23-5.29-28.85-7.94-5.86-1.61-11.71-3.23-17.57-4.81-1.44-.39-2.13.06-2.52,1.48-1.18,4.3-2.36,8.61-3.55,12.91-1.92,6.94-3.85,13.88-5.77,20.83-1.78,6.45-3.56,12.91-5.34,19.36-1,3.62-2.01,7.24-2.98,10.87-.35,1.3.13,2.06,1.42,2.41,3.46.95,6.92,1.88,10.38,2.84,9.56,2.64,19.11,5.3,28.66,7.94,6.75,1.87,13.51,3.72,20.27,5.57.43.12.88.2,1.18.27Z"/><path class="cls-2" d="M49.74,22.4c-.37-1.63-.89-3.21-1.61-4.71-1.44-2.99-3.19-5.78-5.29-8.36-.16-.2-.54-.39-.32-.69.17-.22.47.02.7.08,7.27,2.13,14.53,4.26,21.79,6.39,4.04,1.19,8.08,2.37,12.11,3.57.59.18,1.19.36,1.73.68,1.83,1.07,2.35,2.19,1.78,4.24-1.13,4.14-2.32,8.27-3.47,12.41-2.37,8.49-4.74,16.98-7.09,25.47-1.68,6.07-3.36,12.14-5.01,18.22-.99,3.64-2.6,4.66-6.24,3.68-5.08-1.36-10.14-2.77-15.2-4.19-8.43-2.37-16.86-4.76-25.28-7.14-3.7-1.04-7.38-2.16-11.1-3.12-2.93-.75-3.54-2.7-2.84-5.29.58-2.16,1.17-4.31,1.77-6.46.86-3.1,1.71-6.21,2.58-9.31.27-.97.28-.95,1.09-.43,4.31,2.79,9.07,4.45,14.07,5.42,5.79,1.13,11.64,1.4,17.54,1.1,4.1-.21,8.16-.64,12.2-1.32.22-.04.49-.19.63.04.14.24-.14.39-.28.55-2.71,3.13-4.82,6.61-6.27,10.49-1.14,3.06-1.68,6.15-.74,9.37,1.08,3.7,3.85,6.09,7.69,6.57,1.58.2,3.15.3,4.71-.11,3.36-.89,5.23-3.21,6.06-6.44,1.02-4,0-7.67-2.09-11.09-.91-1.49-2.03-2.85-2.97-4.33-1.09-1.73-1.48-3.66-1.29-5.68.08-.9.2-.93.94-.46,1.58,1,3.2,1.92,4.98,2.51,1.87.63,2.97-.18,3.01-2.16.03-1.71-.53-3.28-1.2-4.81-.28-.63-.14-.87.48-1.11,1.71-.66,3.41-1.36,4.99-2.32,1.33-.8,1.42-1.21.48-2.46-.75-.99-1.58-1.93-2.5-2.76-.55-.5-.48-.82.07-1.27,1.45-1.19,2.72-2.55,3.75-4.12,1.02-1.57.73-2.55-.98-3.28-1.98-.86-4.1-1.02-6.21-1.22-.8-.08-.94-.34-.75-1.06.49-1.8.99-3.6,1.02-5.48.03-1.62-.43-2.03-1.99-1.64-2.26.57-4.38,1.51-6.45,2.54-.68.34-1.02.3-1.31-.48-.59-1.56-1.29-3.07-2.51-4.28-1.46-1.45-2.43-1.3-3.4.54-.32.6-.63,1.21-.89,1.83-.25.59-.45,1.21-.67,1.81-.07,0-.14.02-.2.03Z"/><path class="cls-4" d="M49.51,46.66c-1.95-1.71-3.34-3.84-4.58-6.06-2.33-4.16-3.72-8.68-4.53-13.34-.95-5.49-3.46-10.1-7.23-14.11-3.24-3.45-7.03-6.17-11.23-8.35-.26-.13-.71-.18-.67-.54.04-.4.51-.37.82-.45.99-.27,1.9.16,2.82.38,4.58,1.11,9.16,2.27,13.73,3.4.58.14,1,.43,1.39.89,4.64,5.42,7.85,11.56,9.41,18.54.49,2.21.61,4.47,1,6.69.68,3.84,1.34,7.69,3.11,11.23,1.05,2.1,2.56,3.77,4.6,4.95.09.05.16.14.31.27-.92.44-1.87.43-2.76.56-3.83.57-7.68.9-11.54,1.1-3.7.19-7.4.18-11.09-.05-6.09-.39-12.06-1.42-17.76-3.69-1.73-.69-3.35-1.62-4.95-2.6-.49-.3-.77-.64-.58-1.32,1.54-5.61,3.04-11.23,4.56-16.84,1.31-4.83,2.62-9.65,3.93-14.47.49-1.8.98-3.59,1.43-5.4.17-.69.45-.86,1.13-.55,6.56,2.96,11.95,7.25,15.53,13.6,1.48,2.64,2.11,5.58,2.91,8.46,1.46,5.23,3.43,10.23,6.85,14.54.97,1.22,2.1,2.28,3.4,3.15ZM20.97,39.84c.14-.38-.08-.61-.18-.86-1.6-3.91-1.97-7.99-1.48-12.14.63-5.38,2.49-10.35,5.35-14.94.32-.51.24-.79-.25-1.09-.59-.37-.88-.07-1.14.4-1.19,2.15-2.36,4.3-3.26,6.6-2.32,5.91-3.31,11.89-1.17,18.09.49,1.42,1.12,2.75,2.13,3.95ZM28.78,40.31c.13-.3.02-.51-.02-.73-.53-2.57-.5-5.15-.13-7.74.53-3.74,1.61-7.32,2.98-10.83.39-1,.86-1.96,1.27-2.95.18-.43-.29-1.33-.73-1.44-.58-.13-.69.34-.85.73-.34.86-.71,1.72-1.03,2.59-.83,2.28-1.53,4.6-2.04,6.98-.84,3.88-1.16,7.75-.13,11.64.16.59.34,1.17.68,1.74ZM40.23,46.44c-.17-.88-.54-1.67-.71-2.54-.5-2.59-.43-5.18.04-7.74.25-1.36-.35-2.45-.65-3.85-.15.3-.22.39-.24.49-.68,3.31-1.09,6.64-.33,9.99.31,1.35.7,2.73,1.89,3.65ZM29.21,7.98c3.28.66,6.55,1.31,9.45,3.12-1.63-1.98-6.64-3.4-9.45-3.12ZM36.89,15.32c1.35,1.78,3.58,2.28,5.2,3.67-1.41-1.67-3.05-3.03-5.2-3.67Z"/><path class="cls-6" d="M64.32,71.33c-.04,1.48-.66,3.61-2.49,5.26-2.02,1.82-4.4,2.13-6.89,1.44-4.88-1.35-7.15-5.41-6.15-10.75.58-3.11,1.94-5.88,3.64-8.5,1.4-2.15,2.82-4.29,4.44-6.28.13-.16.22-.47.49-.37.26.09.17.39.18.6.2,3.44,1.55,6.43,3.58,9.16,1.89,2.54,3.24,5.29,3.2,9.44ZM54.62,77.05c.08-.07.15-.15.23-.22-.32-.26-.68-.49-.97-.78-.78-.78-1.29-1.73-1.39-2.83-.17-1.79,0-3.54.67-5.23.75-1.89.73-1.88-1.33-1.81-.57.02-.9.24-1.01.8-.16.77-.38,1.54-.47,2.32-.37,3.33.81,6.45,4.28,7.75Z"/><path class="cls-7" d="M64.71,38.05c0,3.53-.97,5.98-2.63,8.22-.64.87-1.38,1.64-2.08,2.45-.3.35-.6.42-1.03.21-.94-.44-1.73-1.07-2.35-1.89-.91-1.22-1.78-2.44-2.4-3.86-.72-1.66-1.25-3.37-1.73-5.1-.61-2.2-.96-4.46-1.29-6.72-.17-1.11-.07-2.24-.39-3.35-.23-.82.23-1.26,1.09-1.14,3.08.45,6.08,1.12,8.64,3.1,2.9,2.24,4.28,5.14,4.17,8.08Z"/><path class="cls-5" d="M65.52,38.76c-.17-4.12-1.71-7.61-5.02-10.11-1.93-1.46-4.21-2.28-6.66-2.49-.9-.08-1.8-.12-2.7-.17-.54-.03-.8-.31-.65-.83.54-1.86.85-3.79,1.93-5.47.59-.91,1.21-1.07,1.98-.31,1.26,1.22,2,2.79,2.7,4.36.49,1.11.46,1.13,1.58.58,1.85-.91,3.68-1.85,5.69-2.38.93-.25,1.22-.05,1.29.94.09,1.37-.26,2.69-.45,4.03-.1.75-.28,1.5-.38,2.25-.06.46.25.7.66.69,1.19-.02,2.36.28,3.53.33,1.19.06,2.26.47,3.36.81.63.2.83.63.57,1.26-.53,1.27-1.56,2.12-2.48,3.07-.63.64-1.31,1.24-2,1.83-.44.37-.39.68-.02,1.05.91.92,1.82,1.86,2.72,2.79.14.14.28.28.4.43.79,1,.72,1.43-.41,2.03-1.53.8-3.14,1.4-4.76,1.99-.73.26-.9.58-.71,1.38.41,1.75,1.09,3.45,1.03,5.3-.02.68-.23.94-.96.91-1.59-.06-2.85-.9-4.1-1.68-2.46-1.53-2.11-1.05-.4-2.83,1.55-1.62,2.76-3.41,3.54-5.5.51-1.37.63-2.8.71-4.24Z"/><text class="cls-3" transform="translate(88.89 56.08)"><tspan class="cls-8" x="0" y="0">Embun </tspan><tspan class="cls-9" x="170.55" y="0">P</tspan><tspan class="cls-8" x="200.61" y="0">agi</tspan></text><text class="cls-1" transform="translate(88.36 88.99)"><tspan x="0" y="0">ISLAMIC SCHOOL</tspan></text></g></g></svg>