<svg width="135" height="135" viewBox="0 0 135 135" fill="none" xmlns="http://www.w3.org/2000/svg">
<g clip-path="url(#clip0_201_656)">
<path d="M75.6719 100.364C74.8533 96.7681 74.3109 93.115 74.0548 89.4355C73.7988 85.7635 73.8096 82.0814 73.813 78.3993C73.8137 78.0817 73.8129 77.7672 73.8137 77.4497C75.8479 76.6857 77.8631 75.8784 79.8445 74.9978C82.8084 73.6784 85.6813 72.1555 88.3315 70.2763C88.8289 69.9235 88.7063 69.1281 88.0916 68.9911C83.3196 67.9321 78.5616 66.8017 73.822 65.5983L73.829 54.9991L73.8397 41.7464C73.84 41.0622 72.7773 40.8282 72.5074 41.4688C69.4104 48.8278 65.1582 55.5243 60.6046 62.0339C58.9457 61.5602 57.2914 61.0775 55.6401 60.5889C52.6291 59.6928 49.6302 58.7655 46.6375 57.8113C46.0648 57.6284 45.554 58.4194 45.901 58.884C48.8284 62.7893 51.6119 66.801 54.2456 70.9086C52.7719 72.9525 51.3086 74.998 49.8794 77.0646C47.6505 80.2914 45.5033 83.571 43.5371 86.9651C43.2308 87.4936 43.8254 88.1552 44.3829 87.9564L60.8909 82.0611C62.8061 85.5301 64.6226 89.0535 66.3253 92.6313C67.0981 94.2586 67.79 95.9346 68.6091 97.5369C69.3636 99.0091 70.3862 100.3 72.0241 100.785C72.3588 100.884 72.8289 100.593 72.8568 100.237C73.177 96.0199 72.9873 91.7983 72.2473 87.6295C72.2129 87.4325 72.0932 87.2706 71.939 87.1548C71.5412 84.5625 71.0375 81.9875 70.4292 79.434L70.4135 79.34C70.4021 79.2669 70.3831 79.2012 70.3582 79.1399C70.3263 79.0114 70.2959 78.88 70.264 78.7516C70.9771 78.4976 71.689 78.2402 72.3997 77.9794C72.3955 81.5602 72.3794 85.1423 72.5915 88.7171C72.8313 92.7886 73.4203 96.8281 74.3257 100.804C74.5297 101.69 75.8685 101.249 75.6659 100.368L75.6719 100.364ZM64.8885 72.3366C64.7431 72.4608 64.5991 72.5895 64.4536 72.7137C64.1503 72.3836 63.85 72.055 63.5467 71.725C63.3544 71.5075 63.1621 71.29 62.9714 71.0695C63.207 71.0547 63.4338 71.0205 63.6459 70.9713C64.2736 71.3842 64.9118 71.7837 65.5576 72.1684C65.3388 72.1132 65.094 72.1532 64.8856 72.3351L64.8885 72.3366ZM67.1319 83.4524C66.5785 82.4378 65.9996 81.4364 65.3908 80.4572C65.4775 80.4265 65.5671 80.3974 65.6538 80.3667C65.9735 80.9071 66.2798 81.4518 66.58 82.001C66.7585 82.4883 66.943 82.9711 67.1304 83.4554L67.1319 83.4524ZM66.0472 63.5463C66.1079 63.3977 66.17 63.246 66.2277 63.0959C66.2926 63.2037 66.3799 63.2967 66.4793 63.366C66.4697 63.4583 66.4601 63.5581 66.4504 63.658C66.315 63.6227 66.1811 63.5845 66.0457 63.5493L66.0472 63.5463ZM64.7347 64.6999C64.7438 64.6821 64.7543 64.6687 64.7664 64.6524C65.0982 64.7427 65.4255 64.8344 65.7573 64.9247C65.5087 64.8768 65.2586 64.8318 65.0084 64.7868C64.9177 64.7593 64.8269 64.7319 64.7377 64.7014L64.7347 64.6999ZM64.5547 66.3474C64.4537 66.296 64.3498 66.2431 64.2457 66.1977L64.7921 66.3073C65.0032 66.3848 65.2099 66.4638 65.421 66.5413C65.1307 66.4797 64.842 66.415 64.5547 66.3474ZM64.1106 75.2918C64.0515 75.2094 63.9909 75.13 63.9319 75.0475C64.0533 74.9485 64.1748 74.8495 64.2933 74.7489C64.2912 74.8265 64.3011 74.91 64.3273 74.9981C64.3389 75.0415 64.3535 75.0863 64.3651 75.1296C64.2813 75.1842 64.1974 75.2387 64.1106 75.2918ZM63.3826 73.6499L63.0812 73.9116C62.8359 73.5924 62.5907 73.2731 62.341 72.9553C61.9988 72.4297 61.6611 71.9026 61.3249 71.3725C61.7214 71.8061 62.1194 72.2367 62.5129 72.6688C62.7999 72.9943 63.0898 73.3213 63.3812 73.6454L63.3826 73.6499ZM53.4329 78.4088C53.4547 78.4835 53.49 78.5538 53.5373 78.6153C53.3563 78.7064 53.1782 78.7991 52.9987 78.8947C53.1189 78.754 53.2392 78.6132 53.3654 78.4754C53.3834 78.4547 53.4059 78.4325 53.4314 78.4118L53.4329 78.4088ZM57.5384 77.3523C57.4938 77.3296 57.4448 77.3084 57.3912 77.2961C57.3961 77.235 57.3995 77.1694 57.4044 77.1083C57.4456 77.1891 57.4897 77.2714 57.5354 77.3507L57.5384 77.3523ZM64.0429 78.3652C64.0341 78.3383 64.0254 78.3114 64.0196 78.2861C64.2679 78.5845 64.5193 78.8844 64.7676 79.1828C64.7183 79.1988 64.6705 79.2194 64.6212 79.2354C64.4324 78.9449 64.2391 78.6558 64.0458 78.3668L64.0429 78.3652ZM65.757 74.1286C65.6461 74.0086 65.5336 73.884 65.4227 73.764C65.5967 73.6057 65.7663 73.4489 65.9373 73.2891C66.1774 73.0597 66.1957 72.796 66.0884 72.5805C66.1775 72.6259 66.2787 72.6549 66.4039 72.6588C66.6162 72.778 66.8256 72.8958 67.0394 73.012C66.6297 73.4057 66.2007 73.7784 65.7585 74.1331L65.757 74.1286ZM68.1451 70.9417C68.0466 70.9589 67.9511 70.9776 67.8541 70.9918C67.5388 70.678 67.2219 70.3672 66.8976 70.0638C67.1775 70.109 67.4604 70.1557 67.7419 70.198C67.8683 70.4493 68.0037 70.6977 68.1481 70.9432L68.1451 70.9417ZM56.2774 74.1264C56.2305 74.2185 56.2014 74.3271 56.1947 74.4434C56.178 74.6967 56.1583 74.9485 56.1417 75.2018C56.0244 74.9177 55.9026 74.6351 55.7854 74.351C55.8565 74.1965 55.9276 74.042 55.9944 73.8814C56.0156 73.8324 56.0279 73.7788 56.0387 73.7282C56.1212 73.86 56.1993 73.9932 56.2819 74.1249L56.2774 74.1264ZM66.3284 75.9826C66.5458 75.8127 66.6805 75.5185 66.6229 75.2274C67.2226 74.7471 67.7942 74.2338 68.3376 73.6875L68.4802 73.76C67.7393 74.621 67.1361 75.6007 66.7038 76.6635C66.6902 76.6903 66.6826 76.72 66.6749 76.7498C66.5619 76.4941 66.4444 76.2398 66.3284 75.9826ZM70.6481 63.4786C70.792 62.7327 70.9105 61.9852 70.9978 61.233C71.1136 61.7258 71.2458 62.2156 71.396 62.6997C71.5856 63.5031 71.7738 64.3094 71.9635 65.1127C71.5795 65.0146 71.1941 64.912 70.8117 64.811C70.7612 64.3664 70.7106 63.9218 70.6496 63.4756L70.6481 63.4786ZM67.8627 78.0759C67.6878 78.1403 67.5115 78.2002 67.3366 78.2645L67.0652 77.6365C67.2049 77.7001 67.3703 77.7132 67.5526 77.6563C67.6064 77.6388 67.6601 77.6213 67.711 77.6023C67.7431 77.7009 67.7961 77.7877 67.8672 77.8613C67.8652 77.9313 67.8647 78.0059 67.8627 78.0759ZM68.8495 68.9251C68.8348 68.8952 68.8201 68.8653 68.8039 68.8384C69.0931 68.8359 69.3808 68.829 69.6701 68.8265C69.6711 68.8906 69.6736 68.9592 69.6746 69.0233C69.3991 68.9916 69.1235 68.9599 68.8495 68.9251ZM71.0854 69.1614C71.0833 69.0406 71.0796 68.9229 71.0775 68.8021C71.5218 68.7962 71.9705 68.789 72.4148 68.7831C72.4137 68.9396 72.4156 69.0977 72.4145 69.2542C71.9706 69.2295 71.5271 69.1996 71.0839 69.1644L71.0854 69.1614ZM72.1951 53.9397C72.2742 53.7181 72.3533 53.4966 72.4294 53.2735C72.4281 53.8862 72.4282 54.5033 72.4269 55.116C72.3581 54.722 72.2774 54.3293 72.1966 53.9367L72.1951 53.9397ZM72.1166 50.6759C72.1576 50.5659 72.2001 50.4529 72.2441 50.3443C72.5585 49.5132 71.3482 48.8563 70.9874 49.705C70.701 50.3708 70.4027 51.0306 70.0881 51.6784C70.006 51.6927 69.9283 51.7205 69.855 51.7617C69.7582 51.7387 69.6569 51.7395 69.5583 51.7716L69.6432 51.5605C69.7692 51.2394 69.6788 50.954 69.4937 50.7664C70.5398 48.9088 71.528 47.018 72.4344 45.0893C72.4318 46.9542 72.4307 48.8161 72.4281 50.6811C72.3239 50.658 72.2151 50.6587 72.1136 50.6818L72.1166 50.6759ZM56.2242 70.8643C56.167 70.9399 56.1113 71.0126 56.0512 71.0867L55.9583 70.9384C56.014 70.8583 56.0712 70.7827 56.1269 70.7026C56.1593 70.7565 56.1918 70.8104 56.2212 70.8628L56.2242 70.8643ZM56.9312 79.7511C57.3868 79.6201 57.8424 79.4891 58.2965 79.3611C57.6396 79.7257 56.9618 80.0515 56.2668 80.3368C56.4976 80.155 56.7181 79.9568 56.9297 79.7541L56.9312 79.7511ZM86.2016 70.008C85.393 70.5316 84.5696 71.0252 83.7316 71.4889C84.0994 71.1114 83.7981 70.4981 83.3459 70.3652C83.183 70.2001 82.9318 70.1059 82.6362 70.165C82.2465 70.2472 81.8613 70.3354 81.473 70.4296C81.2613 70.4416 81.051 70.4505 80.8422 70.464C80.814 70.2402 80.6888 70.0231 80.5108 69.8952C80.5979 69.371 80.0369 68.8051 79.447 69.1632C79.1596 69.3386 78.8707 69.5095 78.5788 69.6789C78.5437 69.5713 78.4848 69.474 78.3988 69.4004C78.601 68.8413 77.8131 68.3244 77.3145 68.6355L76.2304 69.3107C75.4283 69.3289 74.6233 69.3308 73.8229 69.3088L73.8223 68.7587L76.8309 68.7111C77.2797 68.7038 77.5015 68.3193 77.4743 67.9539C77.8597 68.049 78.2481 68.1456 78.6351 68.2378C81.1517 68.8487 83.6729 69.4358 86.2002 70.0035L86.2016 70.008ZM62.6548 61.5548C62.7372 61.7089 62.8764 61.8396 63.0398 61.9153L62.5864 62.5859C62.4064 62.5355 62.2264 62.485 62.0434 62.433C62.2482 62.1408 62.45 61.847 62.6548 61.5548ZM53.3492 66.9295C51.7396 64.5211 50.0761 62.1526 48.3617 59.818C49.3122 60.1183 50.2657 60.4127 51.2207 60.7041C51.1906 60.7412 51.1606 60.7782 51.1364 60.8183C50.8574 61.0653 50.7606 61.4835 51.1237 61.7917C50.9314 61.9931 50.8608 62.2937 51.0687 62.6127C51.2074 62.8254 51.3475 63.035 51.4877 63.2447C51.4805 63.4206 51.5329 63.6043 51.6719 63.7648C51.9085 64.0422 52.1496 64.3108 52.4012 64.5734C52.9532 65.3554 53.5188 66.1256 54.1008 66.8855C54.4975 67.7231 54.9181 68.5504 55.3641 69.3645C55.2903 69.4654 55.2166 69.5662 55.1458 69.6686C54.5544 68.7506 53.957 67.8371 53.3522 66.931L53.3492 66.9295ZM55.132 72.2833C55.0312 72.4153 54.9304 72.5472 54.8311 72.6762C54.7092 72.8349 54.6692 73.0165 54.6843 73.1925C54.4131 73.3948 54.1448 73.6061 53.8854 73.822C54.2768 73.2731 54.6712 72.7258 55.0671 72.1755C55.0907 72.2099 55.1128 72.2474 55.1364 72.2818L55.132 72.2833ZM54.2406 82.9299C51.4205 83.9373 48.5974 84.9432 45.7758 85.9536C46.3052 85.0748 46.8465 84.202 47.3982 83.3383C47.5708 83.3812 47.7587 83.3646 47.9279 83.26C47.9758 83.232 48.0178 83.201 48.0657 83.173C48.2151 83.3425 48.4409 83.4574 48.6542 83.435C49.2673 83.3767 49.8777 83.2721 50.4735 83.1302C50.5466 83.1262 50.6212 83.1193 50.6928 83.1109C50.7911 83.1309 50.9 83.1227 51.0225 83.0804C54.1433 82.7757 57.1469 81.7383 59.8001 80.0887C59.937 80.3267 60.0695 80.5661 60.205 80.8071C58.2144 81.5147 56.2282 82.2208 54.2406 82.9299ZM67.5204 91.8555C66.155 88.9889 64.7209 86.1556 63.2193 83.358C63.1222 83.1739 63.0191 82.9943 62.922 82.8103C63.2697 82.9722 63.7103 82.856 63.8869 82.5531C63.9591 82.6684 64.0343 82.7852 64.1066 82.9005C65.8707 87.5515 68.1572 91.987 70.9222 96.1219C71.0993 96.3841 71.3685 96.465 71.6193 96.4205C71.6192 97.2881 71.5938 98.1541 71.546 99.0198C70.5563 98.3555 69.9641 97.123 69.4795 96.0761C68.8275 94.6672 68.1904 93.251 67.5234 91.8495L67.5204 91.8555ZM69.9162 77.333L69.8508 77.0865C70.0639 76.8808 70.2697 76.6676 70.465 76.4453C70.5907 76.3821 70.7179 76.3159 70.8421 76.2482C71.3682 76.2653 71.8885 76.257 72.412 76.2279C72.4115 76.295 72.411 76.3621 72.4121 76.4262C72.3119 76.4612 72.2133 76.5008 72.1132 76.5359C71.3823 76.8036 70.647 77.0653 69.9147 77.3285L69.9162 77.333Z" fill="#F4C930"/>
<path d="M65.0579 34.1329C64.3668 32.7875 63.5523 31.5092 62.6248 30.3145L59.5047 24.5607C59.0705 23.7601 57.886 24.53 58.3172 25.3216C58.7661 26.1521 59.2165 26.9797 59.6653 27.8102C59.6033 27.7337 59.5412 27.6573 59.4821 27.5823C59.0254 27.0096 57.8735 27.3847 58.2197 28.1817C58.8989 29.7577 59.5811 31.3352 60.2618 32.9082C60.6182 33.7366 61.9629 33.3062 61.602 32.4719C61.5888 32.439 61.5741 32.4091 61.5609 32.3762C61.7651 32.6072 61.9841 32.8308 62.2107 33.0396C62.7979 33.7086 63.3866 34.3746 63.9872 35.0318C64.5656 35.6664 65.3947 34.7867 65.0564 34.1284L65.0579 34.1329ZM50.4768 35.8511C47.0043 32.7306 43.5303 29.6055 40.0578 26.4849C39.3838 25.8765 38.4299 26.9208 39.1054 27.5263C40.7587 29.0107 42.4105 30.4981 44.0638 31.9825C43.9204 32.2424 43.9255 32.5704 44.2162 32.793L48.0342 35.7416C48.1555 35.8781 48.2723 36.0161 48.3876 36.157C48.5398 36.3429 48.7331 36.4263 48.9283 36.4321L49.5244 36.8925C50.2331 37.44 51.1597 36.4641 50.4768 35.8511ZM35.2427 66.3526C35.1441 66.1716 34.9661 66.0362 34.7099 66.0105C34.9304 65.8197 35.145 65.6185 35.3522 65.4098C35.9903 64.7583 34.943 63.8103 34.3108 64.4573C33.7358 65.0437 33.0957 65.5445 32.4086 65.9542C31.4326 65.9321 30.4562 65.9751 29.4858 66.0828C29.3159 66.0861 29.1429 66.0879 28.973 66.0911C28.8224 66.0931 28.6998 66.1354 28.604 66.1989C28.3443 66.2388 28.0861 66.2832 27.8264 66.3306C27.7682 66.3421 27.707 66.3521 27.6488 66.3636C27.1054 66.4687 27.0643 67.0199 27.3091 67.3914C26.7837 67.7037 26.9615 68.7142 27.7307 68.7092C30.1822 68.6923 32.6156 68.2882 34.9409 67.5118C35.4325 67.3468 35.5475 66.6872 35.2428 66.3452L35.2427 66.3526ZM31.042 81.2397C30.8824 81.252 30.7243 81.2613 30.5647 81.2736C30.768 81.1975 30.9698 81.1244 31.176 81.0498C31.8964 80.788 31.7454 79.5705 30.9173 79.6765C30.2056 79.7669 29.4909 79.8484 28.7748 79.9254C29.1384 79.7401 29.502 79.5474 29.8612 79.3486C30.6559 78.904 29.886 77.7194 29.1002 78.1611C27.4929 79.0637 25.8077 79.7884 24.0536 80.3545C23.2961 80.6011 23.507 81.7818 24.3124 81.7278C24.6912 81.7036 25.07 81.672 25.4474 81.6433L25.4295 81.6492C24.6941 81.9183 24.8649 83.0823 25.6882 83.0225L27.8628 82.8722C26.638 83.4271 25.3677 83.8804 24.0519 84.2245C23.1722 84.4539 23.6116 85.7956 24.4883 85.5647C26.9557 84.9205 29.3087 83.8985 31.4638 82.5351C32.0582 82.1606 31.746 81.1865 31.0406 81.2352L31.042 81.2397ZM88.0409 107.662C87.9296 107.374 87.8153 107.091 87.6995 106.804C87.8502 106.582 87.9015 106.282 87.7647 106.015C87.5264 105.549 87.1052 104.811 86.5835 104.168C86.2151 103.349 85.8332 102.534 85.4318 101.727C85.3833 101.632 85.3242 101.557 85.2605 101.505C85.1568 101.187 85.0592 100.872 84.966 100.548C84.7112 99.6739 83.3695 100.113 83.6258 100.984C83.8179 101.643 84.0295 102.293 84.2636 102.936C84.2292 102.944 84.1904 102.954 84.1575 102.968C83.213 103.31 83.3966 104.331 83.5179 105.114C83.5536 105.338 83.5878 105.565 83.6235 105.789C83.0377 105.345 82.0803 106.036 82.584 106.7C83.1025 107.379 83.6195 108.061 84.135 108.738C84.5191 109.24 85.5519 109.077 85.435 108.315L85.1098 106.212C85.0556 105.863 85.0029 105.511 84.9487 105.162C84.9301 105.044 84.929 104.781 84.9022 104.562C84.9096 104.569 84.914 104.575 84.9214 104.583C85.4612 105.845 86.0846 107.075 86.7859 108.262C87.1896 108.946 88.3382 108.416 88.0483 107.662L88.0409 107.662ZM99.3777 99.3978C97.4026 96.6053 95.2237 93.9633 92.8588 91.4886C92.2639 90.8642 91.4603 91.7307 91.7896 92.3919C91.9954 92.8033 92.2147 93.2103 92.4414 93.61C92.1981 93.6619 91.9957 93.8245 91.9682 94.1284C91.8028 96.0339 92.2565 97.8916 93.359 99.4661C93.8786 100.209 95.0661 99.4482 94.5465 98.7051C93.9177 97.8093 93.5134 96.7883 93.3763 95.7199C93.8195 96.0838 94.2506 96.464 94.6668 96.8589C95.3349 97.6776 96.0569 98.4563 96.827 99.1847C96.9736 99.3229 97.1507 99.3718 97.3237 99.3552C97.6465 99.6764 97.9722 99.9918 98.304 100.303C98.8801 100.839 99.8426 100.064 99.3732 99.3993L99.3777 99.3978ZM104.408 63.664C104.723 63.3979 104.843 62.868 104.458 62.597C102.154 60.9798 99.6141 59.8261 96.8681 59.1957C96.182 59.0373 95.8559 59.8401 96.1612 60.2984C95.5065 60.1223 94.8503 59.9493 94.1956 59.7733C93.6466 59.6248 93.0704 60.3751 93.4592 60.8459C94.5148 62.1155 95.8316 63.1427 97.32 63.8574C98.6321 65.1009 100.383 65.8496 102.232 65.9565C102.831 65.992 102.995 65.3834 102.776 64.954C103.15 64.9313 103.526 64.8907 103.898 64.8292C104.395 64.7492 104.83 64.0695 104.401 63.6639L104.408 63.664ZM98.1911 62.7186C98.0594 62.588 97.9396 62.4485 97.8213 62.3061C99.1152 62.5268 100.373 62.9426 101.549 63.5292C100.391 63.4536 99.2555 63.1794 98.1911 62.7186ZM104.387 48.1139C103.981 48.0678 103.573 48.0247 103.166 47.9786C103.558 47.561 103.111 46.8512 102.557 46.8235C101.936 46.7933 101.313 46.7899 100.692 46.8134C101.187 46.6052 101.679 46.388 102.164 46.1559C102.509 45.9913 102.562 45.4684 102.376 45.1794C101.909 44.4516 101.102 44.045 100.236 44.188C99.4647 44.3153 99.4198 45.4032 100.013 45.5818C98.4361 46.2341 96.806 46.7549 95.1441 47.1473C94.4721 47.3066 94.5284 48.431 95.221 48.5104L95.9003 48.5867C96.0646 48.7563 96.3039 48.8519 96.5891 48.7838C96.7086 48.7548 96.8295 48.7304 96.9474 48.7043C97.1843 48.7313 97.4211 48.7583 97.6595 48.7824C97.5758 48.8071 97.4951 48.8334 97.413 48.8552C96.6497 49.069 96.8706 50.3183 97.6717 50.2285C99.8767 49.989 102.082 49.7495 104.288 49.507C105.037 49.4243 105.225 48.2032 104.389 48.1109L104.387 48.1139Z" fill="#FAEE20"/>
</g>
<defs>
<clipPath id="clip0_201_656">
<rect width="100" height="100" fill="white" transform="translate(45.3457) rotate(26.9657)"/>
</clipPath>
</defs>
</svg>
