<svg width="127" height="127" viewBox="0 0 127 127" fill="none" xmlns="http://www.w3.org/2000/svg">
<g clip-path="url(#clip0_201_660)">
<path d="M93.0769 80.5112C89.9292 78.5903 86.9329 76.4313 84.1174 74.0486C81.3073 71.6711 78.676 69.0954 76.0396 66.525C75.8125 66.303 75.5866 66.0842 75.3595 65.8622C76.2308 63.8715 77.0576 61.8643 77.8084 59.8302C78.9299 56.7859 79.8422 53.6649 80.3439 50.455C80.4379 49.8525 79.7823 49.3856 79.2554 49.7306C75.1684 52.4119 71.0399 55.0333 66.872 57.5907L59.2809 50.1936L49.7907 40.9431C49.3006 40.4657 48.3917 41.0641 48.6626 41.7043C51.7765 49.0562 53.61 56.7739 55.0994 64.5772C53.6029 65.4356 52.1032 66.2846 50.6014 67.1273C47.8593 68.6601 45.1032 70.1625 42.3322 71.6419C41.8017 71.9247 42.0123 72.8425 42.5873 72.9178C47.4277 73.5436 52.244 74.3466 57.0245 75.3238C57.4615 77.8055 57.9069 80.2808 58.3912 82.7463C59.1492 86.5941 60.002 90.4202 61.0631 94.1964C61.2283 94.7845 62.1171 94.8198 62.3634 94.2816L69.6517 78.3395C73.4734 79.3863 77.2653 80.5419 81.0169 81.8168C82.7221 82.398 84.4058 83.071 86.1254 83.6014C87.7066 84.0875 89.3447 84.2548 90.835 83.4196C91.1396 83.2489 91.2583 82.7084 91.0225 82.4401C88.224 79.2699 85.0663 76.4615 81.5625 74.0844C81.3973 73.9717 81.1979 73.9445 81.0073 73.9743C78.8721 72.4515 76.6754 71.0166 74.4212 69.6716L74.3429 69.6173C74.2825 69.5745 74.2222 69.5422 74.1609 69.5174C74.0466 69.4506 73.9312 69.3808 73.817 69.3141C74.1322 68.6258 74.4443 67.9361 74.753 67.245C77.3163 69.7453 79.8722 72.2551 82.582 74.5963C85.6671 77.2639 88.9728 79.6592 92.4539 81.7834C93.2307 82.2548 93.8485 80.9879 93.0759 80.5186L93.0769 80.5112ZM65.4706 68.6925C65.4581 68.8833 65.4499 69.0763 65.4375 69.2672C64.9894 69.2543 64.5445 69.2404 64.0964 69.2275C63.8064 69.2136 63.5164 69.1997 63.2254 69.1827C63.3792 69.0035 63.5129 68.8171 63.6255 68.6309C64.3591 68.4689 65.0905 68.2902 65.8166 68.0956C65.6245 68.2139 65.4825 68.4173 65.4674 68.6935L65.4706 68.6925ZM75.0014 74.8372C73.8883 74.5262 72.7669 74.2427 71.6406 73.9961C71.679 73.9125 71.7206 73.8279 71.7591 73.7444C72.3693 73.8922 72.9733 74.0526 73.5763 74.2205C74.05 74.4324 74.5246 74.6369 75.0024 74.8403L75.0014 74.8372ZM59.979 61.7315C59.9148 61.5844 59.8495 61.434 59.7822 61.288C59.9046 61.3167 60.0322 61.319 60.1511 61.2961C60.2107 61.3674 60.2755 61.4439 60.3403 61.5204C60.2206 61.5929 60.0998 61.6622 59.9801 61.7347L59.979 61.7315ZM59.8904 63.4767C59.884 63.4577 59.8818 63.4409 59.8785 63.4209C60.1746 63.246 60.4686 63.0754 60.7647 62.9006C60.5569 63.0453 60.3503 63.1932 60.1436 63.3411C60.0606 63.387 59.9776 63.4329 59.8936 63.4756L59.8904 63.4767ZM60.9456 64.7547C60.8383 64.7912 60.7279 64.8288 60.6228 64.8717L61.0824 64.5566C61.2852 64.4594 61.4859 64.3663 61.6887 64.2691C61.4421 64.4341 61.1944 64.5959 60.9456 64.7547ZM67.0459 71.311C66.9456 71.2959 66.8464 71.2839 66.7462 71.2687C66.7599 71.1126 66.7737 70.9565 66.7842 70.8015C66.8384 70.857 66.9051 70.9082 66.9866 70.9509C67.0257 70.9728 67.068 70.9936 67.1071 71.0155C67.0878 71.1136 67.0684 71.2118 67.0459 71.311ZM65.3615 70.6876L65.3388 71.0862C64.939 71.0393 64.5392 70.9924 64.1373 70.9497C63.5219 70.8283 62.9087 70.7027 62.2943 70.5739C62.8816 70.5922 63.4678 70.6073 64.0519 70.6266C64.4852 70.648 64.9218 70.6683 65.3573 70.6855L65.3615 70.6876ZM61.8328 81.1371C61.9016 81.1736 61.9766 81.1973 62.0536 81.2063C61.9927 81.3996 61.9349 81.5918 61.8782 81.7872C61.8612 81.6029 61.8441 81.4185 61.8334 81.232C61.8311 81.2046 61.8309 81.173 61.8339 81.1403L61.8328 81.1371ZM63.9389 77.4581C63.8915 77.4742 63.8421 77.4945 63.7959 77.5244C63.7556 77.4782 63.711 77.43 63.6706 77.3839C63.7572 77.4108 63.847 77.4365 63.9357 77.4591L63.9389 77.4581ZM69.2012 73.503C69.1759 73.4906 69.1505 73.4781 69.1283 73.4645C69.5153 73.4946 69.9055 73.5237 70.2926 73.5538C70.2697 73.6003 70.2511 73.649 70.2282 73.6955C69.8883 73.6282 69.5463 73.5651 69.2044 73.502L69.2012 73.503ZM67.3605 69.3198C67.1971 69.3156 67.0295 69.3094 66.8661 69.3052C66.874 69.07 66.8798 68.8392 66.8846 68.6051C66.8877 68.273 66.7114 68.076 66.4822 68.0027C66.5768 67.9705 66.6682 67.9182 66.7583 67.8312C66.9918 67.7622 67.2223 67.6942 67.4547 67.6221C67.4511 68.1903 67.419 68.7576 67.3648 69.3219L67.3605 69.3198ZM66.7421 65.3857C66.6858 65.4683 66.6325 65.5498 66.5751 65.6293C66.1303 65.6364 65.6866 65.6467 65.2429 65.6676C65.4706 65.4985 65.7013 65.3283 65.9279 65.156C66.1962 65.2407 66.4687 65.3169 66.7453 65.3847L66.7421 65.3857ZM60.7476 76.1119C60.7809 76.2098 60.8385 76.3064 60.9171 76.3923C61.087 76.5809 61.2537 76.7706 61.4236 76.9592C61.1383 76.8451 60.8508 76.7353 60.5654 76.6212C60.5043 76.4625 60.4432 76.3037 60.3747 76.1439C60.3543 76.0945 60.3245 76.0483 60.2957 76.0053C60.4477 76.038 60.5977 76.075 60.7497 76.1077L60.7476 76.1119ZM69.0877 70.2034C69.1176 69.9291 69.0007 69.6273 68.7519 69.4656C68.8259 68.7009 68.8567 67.9333 68.8442 67.1628L68.9956 67.1112C69.0959 68.2426 69.3773 69.3581 69.8375 70.4092C69.8472 70.4376 69.8632 70.4639 69.8792 70.4901C69.6171 70.3928 69.353 70.2996 69.0877 70.2034ZM63.1393 58.387C62.7051 57.7637 62.2521 57.1574 61.7738 56.5703C62.2078 56.831 62.6511 57.0779 63.1027 57.3078C63.8107 57.7322 64.5198 58.1597 65.2278 58.584C64.8897 58.7908 64.5474 58.9954 64.2083 59.199C63.8544 58.9252 63.5005 58.6513 63.1382 58.3839L63.1393 58.387ZM71.6579 70.5638C71.5821 70.734 71.5021 70.9021 71.4262 71.0723L70.7869 70.8288C70.9299 70.7731 71.0546 70.6637 71.141 70.4934C71.1659 70.4426 71.1909 70.3919 71.2127 70.3422C71.3058 70.3879 71.405 70.4105 71.5073 70.4108C71.5561 70.4611 71.6091 70.5135 71.6579 70.5638ZM65.7882 63.4746C65.7565 63.4643 65.7248 63.4539 65.6942 63.4468C65.8941 63.2378 66.0899 63.0267 66.2898 62.8177C66.3365 62.8617 66.3874 62.9077 66.4341 62.9517C66.2191 63.1271 66.0042 63.3024 65.7882 63.4746ZM67.5169 62.037C67.4289 61.9543 67.3419 61.8747 67.2539 61.792C67.5596 61.4696 67.8673 61.1429 68.173 60.8204C68.2844 60.9303 68.399 61.0392 68.5104 61.1492C68.1831 61.45 67.8523 61.747 67.518 62.0401L67.5169 62.037ZM57.3821 50.6256C57.2785 50.4144 57.1748 50.2032 57.068 49.9931C57.5062 50.4214 57.9486 50.8517 58.3868 51.2799C58.0564 51.0544 57.7187 50.8385 57.3811 50.6225L57.3821 50.6256ZM54.9883 48.4057C54.9381 48.2995 54.8868 48.1902 54.8397 48.083C54.4633 47.2781 53.1484 47.6873 53.505 48.5377C53.7824 49.2074 54.0473 49.8813 54.2921 50.5586C54.2451 50.6274 54.2108 50.7024 54.1892 50.7838C54.1052 50.837 54.0351 50.9102 53.9893 51.0033L53.8973 50.7952C53.755 50.4809 53.4874 50.3467 53.2239 50.3485C52.6222 48.3032 51.9563 46.2764 51.2063 44.2816C52.541 45.5842 53.8746 46.8835 55.2093 48.186C55.1201 48.2446 55.0447 48.3231 54.9905 48.412L54.9883 48.4057ZM58.3727 73.875C58.387 73.9687 58.4002 74.0593 58.4114 74.1541L58.2404 74.1173C58.2218 74.0215 58.2075 73.9277 58.189 73.8319C58.2502 73.8463 58.3114 73.8606 58.3695 73.8761L58.3727 73.875ZM65.2346 79.5662C65.4585 79.1483 65.6823 78.7305 65.9073 78.3158C65.7104 79.0408 65.4712 79.7538 65.1909 80.4509C65.2216 80.1587 65.2334 79.8624 65.2357 79.5693L65.2346 79.5662ZM78.6661 51.7943C78.4773 52.7389 78.2569 53.6733 78.0047 54.5973C77.9907 54.0703 77.341 53.8585 76.9304 54.09C76.6985 54.0915 76.4558 54.2059 76.2919 54.4589C76.0791 54.7956 75.8737 55.1332 75.6704 55.4771C75.5313 55.6372 75.3911 55.7941 75.2551 55.9531C75.075 55.8173 74.8321 55.7557 74.6163 55.794C74.3014 55.366 73.5046 55.3733 73.3498 56.0458C73.2751 56.3742 73.196 56.7004 73.1139 57.0277C73.0123 56.9778 72.9015 56.9522 72.7888 56.9624C72.5291 56.4276 71.6091 56.6318 71.4843 57.2061L71.2122 58.4539C70.6658 59.0414 70.1057 59.6196 69.5317 60.1779L69.1371 59.7947L71.2013 57.6054C71.5091 57.2787 71.3882 56.8515 71.1073 56.6162C71.4443 56.4063 71.7844 56.1953 72.1203 55.9823C74.3133 54.6048 76.4924 53.2074 78.6619 51.7922L78.6661 51.7943ZM56.1858 62.7738C56.3538 62.8222 56.5445 62.8136 56.7127 62.7492L56.8771 63.5419C56.7154 63.6357 56.5537 63.7295 56.3888 63.8244C56.3222 63.4739 56.2525 63.1244 56.1858 62.7738ZM53.5477 73.1911C50.6991 72.665 47.8416 72.2053 44.9728 71.8057C45.8509 71.334 46.7269 70.856 47.6018 70.3748C47.6074 70.4222 47.6129 70.4696 47.6248 70.5148C47.6073 70.8871 47.8395 71.2481 48.3135 71.2028C48.3238 71.4811 48.4899 71.7414 48.8636 71.8148C49.1127 71.8638 49.3607 71.9096 49.6087 71.9554C49.7297 72.0832 49.8979 72.1738 50.1099 72.1861C50.4737 72.21 50.8343 72.2245 51.198 72.2274C52.1435 72.3771 53.0899 72.509 54.0404 72.6218C54.9173 72.9217 55.8035 73.1973 56.698 73.4454C56.7188 73.5686 56.7397 73.6918 56.7637 73.8139C55.6934 73.5975 54.6221 73.3885 53.5508 73.19L53.5477 73.1911ZM58.6279 75.6474C58.6521 75.8117 58.6764 75.9759 58.6996 76.1371C58.7283 76.3351 58.8306 76.4904 58.9673 76.6023C58.9231 76.9378 58.8874 77.2774 58.8612 77.6139C58.7408 76.9506 58.6237 76.2862 58.5054 75.6187C58.5466 75.6258 58.5888 75.636 58.63 75.6431L58.6279 75.6474ZM65.6362 83.7115C64.3913 86.4351 63.1434 89.1598 61.8996 91.8866C61.639 90.8942 61.391 89.8976 61.1567 88.8999C61.3079 88.8061 61.4271 88.6599 61.4701 88.4656C61.4834 88.4118 61.4905 88.3601 61.5038 88.3062C61.7295 88.3174 61.9693 88.2357 62.102 88.0672C62.4878 87.5871 62.8387 87.0767 63.1525 86.5508C63.2006 86.4956 63.2476 86.4374 63.2915 86.3801C63.3744 86.3237 63.4445 86.24 63.4996 86.1226C65.4578 83.6736 66.8091 80.7975 67.4773 77.7456C67.7434 77.8135 68.0074 77.8855 68.2746 77.9565C67.3934 79.8766 66.5142 81.7924 65.6362 83.7115ZM81.2944 80.4193C78.2878 79.3986 75.2571 78.4503 72.205 77.5753C72.0053 77.5165 71.8047 77.4651 71.6051 77.4064C71.9637 77.2701 72.1877 76.8733 72.0937 76.5356C72.2267 76.5642 72.3629 76.5918 72.4959 76.6204C77.0594 78.5999 81.8328 80.0547 86.7245 80.9569C87.0359 81.0128 87.2816 80.8763 87.4247 80.6656C88.0464 81.2707 88.6492 81.8929 89.2364 82.531C88.07 82.7769 86.7738 82.3417 85.6855 81.9589C84.2211 81.4436 82.7618 80.9125 81.2923 80.413L81.2944 80.4193ZM72.5577 68.574L72.3355 68.4489C72.3367 68.1527 72.3274 67.8566 72.3043 67.5616C72.3467 67.4274 72.3879 67.2901 72.426 67.1539C72.8052 66.7888 73.1621 66.4101 73.5063 66.0146C73.5541 66.0617 73.6018 66.1089 73.6485 66.1528C73.6038 66.2491 73.5633 66.3474 73.5187 66.4436C73.2008 67.154 72.8755 67.8635 72.5534 68.5719L72.5577 68.574Z" fill="#F4C930"/>
<path d="M38.209 41.9272C36.7628 41.4842 35.2787 41.1764 33.7756 41.0078L27.4761 39.2311C26.5996 38.9839 26.3252 40.3697 27.1932 40.6128C28.1015 40.8703 29.0086 41.1247 29.9169 41.3822C29.8188 41.3734 29.7207 41.3645 29.6258 41.3546C28.8969 41.2825 28.3623 42.3696 29.1749 42.6773C30.778 43.2897 32.3843 43.901 33.9864 44.5103C34.8287 44.8326 35.4581 43.5687 34.6084 43.2455C34.5756 43.232 34.544 43.2216 34.5112 43.2082C34.8191 43.223 35.1322 43.222 35.4398 43.2052C36.3288 43.251 37.2166 43.2936 38.1065 43.3214C38.9647 43.3495 38.9125 42.1418 38.2048 41.9251L38.209 41.9272ZM29.2711 53.5752C24.613 53.8874 19.9505 54.1976 15.2924 54.5098C14.3862 54.5685 14.4693 55.9804 15.3744 55.9186C17.5913 55.769 19.8092 55.6226 22.0261 55.473C22.1123 55.7571 22.351 55.9821 22.7132 55.9291L27.4891 55.2493C27.6716 55.2576 27.8519 55.2701 28.0333 55.2858C28.2727 55.3063 28.4672 55.226 28.6076 55.0901L29.3532 54.984C30.2399 54.858 30.1868 53.5133 29.2711 53.5752ZM40.5056 85.7654C40.307 85.7098 40.0859 85.7428 39.8888 85.9086C39.9059 85.6175 39.9113 85.3234 39.9062 85.0293C39.8844 84.1177 38.4746 84.2071 38.4974 85.1114C38.5165 85.9324 38.4291 86.7404 38.2434 87.5185C37.5469 88.2027 36.8968 88.9324 36.2972 89.7029C36.181 89.827 36.0617 89.9522 35.9455 90.0763C35.8419 90.1855 35.7868 90.3029 35.7654 90.4158C35.6129 90.6297 35.4646 90.8458 35.3174 91.0649C35.2851 91.1147 35.2496 91.1655 35.2172 91.2153C34.9135 91.6779 35.28 92.0919 35.7169 92.1754C35.5743 92.7699 36.4225 93.3472 36.9554 92.7924C38.653 91.0238 40.0605 88.998 41.1258 86.7901C41.3504 86.3227 40.9579 85.7803 40.5003 85.7601L40.5056 85.7654ZM48.2448 99.1584C48.1423 99.2814 48.0388 99.4012 47.9363 99.5241C48.0235 99.3254 48.1118 99.1298 48.2022 98.93C48.517 98.2311 47.5391 97.4902 47.0376 98.1576C46.606 98.7307 46.166 99.2997 45.7217 99.8666C45.8425 99.4768 45.9579 99.0818 46.066 98.6858C46.3016 97.8062 44.9157 97.5318 44.6843 98.403C44.2101 100.184 43.5542 101.897 42.7365 103.549C42.385 104.264 43.3782 104.937 43.9012 104.322C44.148 104.033 44.3896 103.74 44.6322 103.449L44.6239 103.466C44.304 104.181 45.2572 104.87 45.7885 104.239L47.1975 102.575C46.7409 103.84 46.1798 105.067 45.5088 106.25C45.0597 107.04 46.3277 107.661 46.7736 106.872C48.0328 104.654 48.9414 102.255 49.4673 99.7596C49.6135 99.0725 48.6977 98.6168 48.2406 99.1564L48.2448 99.1584ZM106.933 76.7377C106.649 76.6162 106.367 76.5011 106.08 76.3839C106.026 76.1207 105.847 75.8752 105.56 75.7864C105.06 75.6327 104.238 75.4199 103.413 75.3452C102.569 75.0378 101.718 74.743 100.86 74.4682C100.758 74.4362 100.663 74.4263 100.582 74.4363C100.281 74.2886 99.9874 74.1388 99.6901 73.9795C98.8862 73.5526 98.2652 74.8206 99.0681 75.2443C99.6742 75.566 100.288 75.8677 100.911 76.1481C100.894 76.1788 100.874 76.2137 100.86 76.2465C100.447 77.1621 101.307 77.7425 101.953 78.2021C102.138 78.3326 102.324 78.4663 102.51 78.5968C101.783 78.707 101.611 79.8751 102.438 79.9771C103.286 80.0791 104.135 80.1841 104.98 80.2871C105.608 80.362 106.212 79.5084 105.584 79.0604L103.85 77.8269C103.562 77.6222 103.273 77.4144 102.984 77.2096C102.887 77.1407 102.698 76.9586 102.522 76.8248C102.533 76.8247 102.54 76.8257 102.551 76.8257C103.832 77.319 105.148 77.7298 106.488 78.0551C107.259 78.2429 107.681 77.05 106.938 76.7324L106.933 76.7377ZM108.917 62.8493C105.538 62.3171 102.125 62.0361 98.7024 62.0049C97.8401 61.9958 97.9006 63.1761 98.6041 63.4012C99.0425 63.5406 99.4871 63.6673 99.9316 63.7835C99.7991 63.9942 99.7745 64.2526 99.9731 64.4842C101.223 65.9317 102.871 66.9022 104.768 67.2101C105.663 67.356 105.946 65.9743 105.051 65.8284C103.971 65.6542 102.957 65.2319 102.096 64.5851C102.666 64.5213 103.239 64.4774 103.812 64.4547C104.865 64.5468 105.926 64.5725 106.985 64.5286C107.187 64.5199 107.345 64.4271 107.454 64.2915C107.909 64.2842 108.362 64.2707 108.817 64.2498C109.603 64.2109 109.719 62.981 108.915 62.8535L108.917 62.8493ZM86.8167 34.3222C86.8456 33.9109 86.5496 33.4554 86.0864 33.5428C83.3207 34.066 80.7226 35.0814 78.3557 36.6097C77.7637 36.991 78.1115 37.7845 78.653 37.8853C78.0702 38.2317 77.4885 38.5813 76.9058 38.9278C76.4165 39.2177 76.5523 40.1539 77.1609 40.2037C78.807 40.3326 80.4615 40.1052 82.0117 39.5371C83.818 39.464 85.5757 38.7314 86.942 37.4806C87.3852 37.076 87.0633 36.5342 86.6027 36.3918C86.8475 36.1077 87.0806 35.8099 87.2957 35.5007C87.585 35.0888 87.4016 34.3026 86.8115 34.3275L86.8167 34.3222ZM81.8031 38.1185C81.6176 38.1219 81.4342 38.1104 81.2496 38.0958C82.3102 37.3225 83.4857 36.7107 84.7256 36.2777C83.8643 37.0544 82.8757 37.6771 81.8031 38.1185ZM75.658 23.4922C75.3414 23.7515 75.0258 24.0139 74.7092 24.2732C74.6833 23.701 73.8631 23.5262 73.4566 23.9041C73.0017 24.3282 72.5654 24.7718 72.1488 25.2335C72.3447 24.7337 72.5322 24.2296 72.7038 23.7204C72.8268 23.358 72.489 22.9555 72.1523 22.8871C71.3047 22.7145 70.4507 23.009 69.9494 23.7291C69.5025 24.3708 70.2509 25.1618 70.7928 24.8609C70.1603 26.4463 69.3967 27.9777 68.5188 29.4424C68.1643 30.035 69.0094 30.7789 69.5493 30.3379L70.0777 29.9043C70.3138 29.9049 70.5493 29.8 70.6994 29.5481C70.762 29.4423 70.8287 29.3386 70.8924 29.2359C71.0769 29.085 71.2614 28.9341 71.4449 28.78C71.4043 28.8572 71.3668 28.9334 71.3251 29.0075C70.946 29.7036 71.9954 30.4166 72.4898 29.7798C73.856 28.0325 75.2221 26.2853 76.5873 24.5349C77.0503 23.9405 76.3059 22.9545 75.657 23.489L75.658 23.4922Z" fill="#FAEE20"/>
</g>
<defs>
<clipPath id="clip0_201_660">
<rect width="100" height="100" fill="white" transform="translate(0 32.2488) rotate(-18.8134)"/>
</clipPath>
</defs>
</svg>
