<svg width="455" height="373" viewBox="0 0 455 373" fill="none" xmlns="http://www.w3.org/2000/svg">
<g clip-path="url(#clip0_88_264)">
<path d="M264.202 160.274C516.566 295.525 228.224 319.545 102.581 278.546C69.2238 267.662 140.478 188.799 160.012 177.949C194.995 153.686 232.319 148.641 265.313 160.637L264.202 160.274Z" fill="#FAEE20"/>
<path d="M276.007 154.288C189.279 125.989 104.203 183.118 81.439 267.961C68.5998 284.687 28.3842 242.037 16.1065 230.649C-14.8745 186.092 105.842 208.258 90.1111 177.289C91.4686 158.048 66.9949 89.7775 99.9419 94.3768C123.245 94.5989 160.874 137.635 177.049 121.998C210.885 33.3852 230.009 16.2501 269.101 115.126C286.622 136.837 340.156 63.2645 348.947 107.963C359.071 129.72 340.859 174.22 366.796 181.453C386.061 186.509 437.769 175.085 435.733 203.947C348.492 328.036 398.678 193.086 276.007 154.288Z" fill="#F4C930"/>
</g>
<defs>
<clipPath id="clip0_88_264">
<rect width="260.936" height="400" fill="white" transform="translate(0.30957 248.866) rotate(-71.9282)"/>
</clipPath>
</defs>
</svg>
