<svg width="184" height="200" viewBox="0 0 184 200" fill="none" xmlns="http://www.w3.org/2000/svg">
<path d="M133.66 131.745C116.46 123.993 99.2266 116.308 82.06 108.489C72.7933 104.267 60.7133 98.4525 56.0133 88.7358C58.9333 89.2619 61.8933 89.6016 64.8533 89.7681C73.0266 90.2276 81.5266 88.183 84.3066 79.5718C86.58 72.539 83.72 64.3541 77.1466 60.7711C70.1533 56.955 60.8733 58.3602 55.1733 63.8546C50.5066 68.35 48.3733 74.9899 48.74 81.41C46.2866 80.6174 44.18 79.8049 42.6866 79.119C26.6933 71.7532 14.9266 55.956 16.7 37.8346C17.0333 34.4247 11.7 34.4447 11.3666 37.8346C9.52664 56.6287 21.2666 74.0375 37.58 82.5288C41.4866 84.5601 45.6 86.1451 49.8266 87.3172C52.22 94.8629 57.9533 100.677 64.4 105.052C73.5133 111.246 84.1333 115.229 94.1266 119.737L130.967 136.34C134.073 137.739 136.787 133.15 133.66 131.738V131.745ZM54.04 80.9171C53.7333 73.6779 57.5533 66.1922 64.9866 64.3607C71.54 62.7424 78.8666 66.0324 79.68 73.2317C81.1733 86.4248 66.1666 85.8521 54.2466 82.9617C54.1466 82.2957 54.0733 81.6164 54.0466 80.9171H54.04Z" fill="#1C94D2"/>
<path d="M156.04 137.659C145.044 127.411 134.483 116.706 124.387 105.572C122.074 103.028 118.314 106.804 120.614 109.341C129.729 119.387 139.223 129.084 149.074 138.412C134.834 143.313 121.44 150.353 109.367 159.39C106.654 161.421 109.307 166.05 112.06 163.992C125.007 154.302 139.414 146.896 154.867 142.108C156.714 141.535 157.56 139.071 156.047 137.652L156.04 137.659Z" fill="#1C94D2"/>
</svg>
