<svg width="150" height="151" viewBox="0 0 150 151" fill="none" xmlns="http://www.w3.org/2000/svg">
<path d="M134.745 56.6414C125.845 56.6414 121.145 52.3208 117.715 49.169C114.875 46.5567 113.745 45.6526 110.845 45.6526C107.945 45.6526 106.815 46.5567 103.975 49.169C100.545 52.3208 95.8451 56.6414 86.9451 56.6414C78.0451 56.6414 73.3451 52.3208 69.9151 49.169C67.0751 46.5567 65.9451 45.6526 63.0451 45.6526C60.1451 45.6526 59.0151 46.5567 56.1751 49.169C52.7451 52.3258 48.0501 56.6414 39.1451 56.6414C30.2401 56.6414 25.5451 52.3208 22.1151 49.169C19.2751 46.5567 18.1451 45.6526 15.2451 45.6526V30.668C24.1451 30.668 28.8451 34.9885 32.2751 38.1403C35.1151 40.7526 36.2451 41.6567 39.1451 41.6567C42.0451 41.6567 43.1751 40.7526 46.0151 38.1403C49.4451 34.9836 54.1401 30.668 63.0451 30.668C71.9501 30.668 76.6451 34.9885 80.0751 38.1403C82.9151 40.7526 84.0451 41.6567 86.9451 41.6567C89.8451 41.6567 90.9751 40.7526 93.8151 38.1403C97.2451 34.9836 101.945 30.668 110.845 30.668C119.745 30.668 124.445 34.9885 127.875 38.1403C130.715 40.7526 131.845 41.6567 134.745 41.6567V56.6414Z" fill="#1C94D2" fill-opacity="0.35"/>
<path d="M134.745 88.094C125.845 88.094 121.145 83.7734 117.715 80.6217C114.875 78.0093 113.745 77.1053 110.845 77.1053C107.945 77.1053 106.815 78.0093 103.975 80.6217C100.545 83.7734 95.8451 88.094 86.9451 88.094C78.0451 88.094 73.3451 83.7734 69.9151 80.6217C67.0751 78.0093 65.9451 77.1053 63.0451 77.1053C60.1451 77.1053 59.0151 78.0093 56.1751 80.6217C52.7451 83.7784 48.0501 88.094 39.1451 88.094C30.2401 88.094 25.5451 83.7734 22.1151 80.6217C19.2751 78.0093 18.1451 77.1053 15.2451 77.1053V62.1206C24.1451 62.1206 28.8451 66.4412 32.2751 69.593C35.1151 72.2053 36.2451 73.1094 39.1451 73.1094C42.0451 73.1094 43.1751 72.2053 46.0151 69.593C49.4451 66.4362 54.1401 62.1206 63.0451 62.1206C71.9501 62.1206 76.6451 66.4412 80.0751 69.593C82.9151 72.2053 84.0451 73.1094 86.9451 73.1094C89.8451 73.1094 90.9751 72.2053 93.8151 69.593C97.2451 66.4362 101.945 62.1206 110.845 62.1206C119.745 62.1206 124.445 66.4412 127.875 69.593C130.715 72.2053 131.845 73.1094 134.745 73.1094V88.094Z" fill="#1C94D2" fill-opacity="0.35"/>
<path d="M134.745 119.547C125.845 119.547 121.145 115.227 117.715 112.075C114.875 109.462 113.745 108.558 110.845 108.558C107.945 108.558 106.815 109.462 103.975 112.075C100.545 115.227 95.8451 119.547 86.9451 119.547C78.0451 119.547 73.3451 115.227 69.9151 112.075C67.0751 109.462 65.9451 108.558 63.0451 108.558C60.1451 108.558 59.0151 109.462 56.1751 112.075C52.7451 115.232 48.0501 119.547 39.1451 119.547C30.2401 119.547 25.5451 115.227 22.1151 112.075C19.2751 109.462 18.1451 108.558 15.2451 108.558V93.5737C24.1451 93.5737 28.8451 97.8943 32.2751 101.046C35.1151 103.658 36.2451 104.562 39.1451 104.562C42.0451 104.562 43.1751 103.658 46.0151 101.046C49.4451 97.8893 54.1401 93.5737 63.0451 93.5737C71.9501 93.5737 76.6451 97.8943 80.0751 101.046C82.9151 103.658 84.0451 104.562 86.9451 104.562C89.8451 104.562 90.9751 103.658 93.8151 101.046C97.2451 97.8893 101.945 93.5737 110.845 93.5737C119.745 93.5737 124.445 97.8943 127.875 101.046C130.715 103.658 131.845 104.562 134.745 104.562V119.547Z" fill="#1C94D2" fill-opacity="0.35"/>
</svg>
